<svg width="64" height="64" viewBox="0 0 64 64" fill="none" xmlns="http://www.w3.org/2000/svg">
<path d="M32 64C49.6731 64 64 49.6731 64 32C64 14.3269 49.6731 0 32 0C14.3269 0 0 14.3269 0 32C0 49.6731 14.3269 64 32 64Z" fill="#00ADFE"/>
<path opacity="0.3" d="M32.0002 57.6004C46.1386 57.6004 57.6002 46.1389 57.6002 32.0004C57.6002 17.8619 46.1386 6.40039 32.0002 6.40039C17.8617 6.40039 6.40015 17.8619 6.40015 32.0004C6.40015 46.1389 17.8617 57.6004 32.0002 57.6004Z" fill="#356CB6"/>
<path d="M32 64.0002C40.2611 64.0092 48.2034 60.8124 54.1546 55.0829C53.6213 43.1202 52.0533 25.4882 47.408 14.9869C44.832 9.16286 38.7946 5.26953 32 5.26953C25.2053 5.26953 18.8533 9.00286 16.592 14.9869C12.576 25.5629 10.8533 43.3762 10.1333 55.3389C16.0508 60.9091 23.8732 64.0075 32 64.0002Z" fill="#393C54"/>
<path d="M42.7359 17.1365C40.8586 12.6138 37.1466 10.2991 32.2079 10.2031H31.7919C26.8532 10.3205 23.1412 12.6351 21.2639 17.1365C19.3279 21.7818 18.6879 28.7471 21.2639 38.0378C23.7652 47.1045 26.8852 48.9658 31.7919 49.0618H32.2079C37.1146 48.9658 40.2079 47.0778 42.7359 38.0378C45.3332 28.7471 44.6719 21.7818 42.7359 17.1365Z" fill="white"/>
<path d="M39.2427 26.043H41.5947" stroke="#393C54" stroke-width="5.51" stroke-miterlimit="10" stroke-linecap="round"/>
<path d="M34.3999 44.7999C32.8085 45.0346 31.1913 45.0346 29.5999 44.7999C28.9333 44.6239 28.2666 44.2026 28.2666 43.4666C28.2666 42.7306 28.9066 42.3306 29.5999 42.1332C31.18 41.7759 32.8199 41.7759 34.3999 42.1332C35.0453 42.2986 35.7333 42.7306 35.7333 43.4666C35.7333 44.2026 35.0559 44.6292 34.3999 44.7999Z" fill="#393C54"/>
<path d="M41.6268 28.8585C40.611 29.0957 39.5477 29.027 38.5708 28.6611" stroke="#393C54" stroke-width="2.21" stroke-miterlimit="10" stroke-linecap="round"/>
<path d="M38.0906 32.5335C38.1383 32.1015 38.3437 31.7022 38.6675 31.4122C38.9912 31.1223 39.4106 30.9619 39.8452 30.9619C40.2799 30.9619 40.6993 31.1223 41.023 31.4122C41.3468 31.7022 41.5522 32.1015 41.5999 32.5335C41.5999 33.5095 39.8346 40.1761 38.6612 40.1761C38.0906 40.1548 38.0906 33.4881 38.0906 32.5335Z" fill="#A7AECE"/>
<path d="M38.0642 21.8668C38.0642 22.3357 38.2505 22.7854 38.582 23.117C38.9136 23.4486 39.3633 23.6348 39.8322 23.6348C40.3011 23.6348 40.7508 23.4486 41.0824 23.117C41.4139 22.7854 41.6002 22.3357 41.6002 21.8668C41.6002 20.8962 40.2189 16.5762 39.2482 16.5762C38.2775 16.5762 38.0642 20.9015 38.0642 21.8668Z" fill="#A7AECE"/>
<path d="M22.4053 26.043H24.7573" stroke="#393C54" stroke-width="5.51" stroke-miterlimit="10" stroke-linecap="round"/>
<path d="M25.4293 28.6719C24.4183 29.0402 23.3196 29.0941 22.2773 28.8265" stroke="#393C54" stroke-width="2.21" stroke-miterlimit="10" stroke-linecap="round"/>
<path d="M25.9361 21.8668C25.9361 22.3357 25.7499 22.7854 25.4183 23.117C25.0867 23.4486 24.637 23.6348 24.1681 23.6348C23.6992 23.6348 23.2495 23.4486 22.918 23.117C22.5864 22.7854 22.4001 22.3357 22.4001 21.8668C22.4001 20.8962 23.7815 16.5762 24.7521 16.5762C25.7228 16.5762 25.9361 20.9015 25.9361 21.8668Z" fill="#A7AECE"/>
<path d="M25.9095 32.5335C25.8618 32.1015 25.6564 31.7022 25.3326 31.4122C25.0088 31.1223 24.5895 30.9619 24.1548 30.9619C23.7202 30.9619 23.3008 31.1223 22.977 31.4122C22.6533 31.7022 22.4479 32.1015 22.4001 32.5335C22.4001 33.5095 24.1655 40.1761 25.3388 40.1761C25.9095 40.1548 25.9095 33.4881 25.9095 32.5335Z" fill="#A7AECE"/>
<path d="M34.352 46.0373C34.352 46.688 33.2853 47.216 31.9999 47.216C30.7146 47.216 29.6479 46.6826 29.6479 46.0373C29.6479 45.7066 30.7146 45.8933 31.9999 45.8933C33.2853 45.8933 34.352 45.7066 34.352 46.0373Z" fill="#A7AECE"/>
<path opacity="0.2" d="M42.7361 17.1359C42.1828 15.7611 41.3718 14.5048 40.3467 13.4346C41.1201 18.9386 40.6827 26.0426 39.6214 35.7599C38.5067 45.9466 33.5254 48.1866 28.4214 48.5599C29.5182 48.8983 30.6602 49.0673 31.8081 49.0612H32.2241C37.1307 48.9652 40.2241 47.0772 42.7521 38.0372C45.3334 28.7466 44.6721 21.7812 42.7361 17.1359Z" fill="#393C54"/>
</svg>
