<svg
    width="35"
    height="35"
    viewBox="0 0 35 35"
    stroke="currentColor"
    fill="none"
    xmlns="http://www.w3.org/2000/svg"
>
<path
        d="M10.2083 18.9583C11.7459 18.9583 13.0056 20.1481 13.117 21.6573L13.125 21.875V26.25C13.125 27.7877 11.9351 29.0473 10.426 29.1587L10.2083 29.1667H5.83329C4.29568 29.1667 3.03597 27.9769 2.92463 26.4677L2.91663 26.25V21.875C2.91663 20.3373 4.10645 19.0777 5.61562 18.9663L5.83329 18.9583H10.2083ZM23.3333 24.7917C24.1387 24.7917 24.7916 25.4446 24.7916 26.25C24.7916 26.9979 24.2287 27.6143 23.5034 27.6985L23.3333 27.7083H17.5C16.6945 27.7083 16.0416 27.0554 16.0416 26.25C16.0416 25.5021 16.6046 24.8857 17.3299 24.8015L17.5 24.7917H23.3333ZM29.1666 18.9583C29.9721 18.9583 30.625 19.6112 30.625 20.4167C30.625 21.2221 29.9721 21.875 29.1666 21.875H17.5C16.6945 21.875 16.0416 21.2221 16.0416 20.4167C16.0416 19.6112 16.6945 18.9583 17.5 18.9583H29.1666ZM10.2083 4.375C11.8191 4.375 13.125 5.68084 13.125 7.29167V11.6667C13.125 13.2775 11.8191 14.5833 10.2083 14.5833H5.83329C4.22246 14.5833 2.91663 13.2775 2.91663 11.6667V7.29167C2.91663 5.68084 4.22246 4.375 5.83329 4.375H10.2083ZM23.3333 10.2083C24.1387 10.2083 24.7916 10.8613 24.7916 11.6667C24.7916 12.4145 24.2287 13.0309 23.5034 13.1152L23.3333 13.125H17.5C16.6945 13.125 16.0416 12.4721 16.0416 11.6667C16.0416 10.9188 16.6046 10.3024 17.3299 10.2181L17.5 10.2083H23.3333ZM29.1666 4.375C29.9721 4.375 30.625 5.02792 30.625 5.83333C30.625 6.58121 30.062 7.19761 29.3367 7.28186L29.1666 7.29167H17.5C16.6945 7.29167 16.0416 6.63874 16.0416 5.83333C16.0416 5.08545 16.6046 4.46905 17.3299 4.38481L17.5 4.375H29.1666Z"
        fill="currentColor"
    />
</svg>
