<svg width="19" height="20" viewBox="0 0 19 20" fill="none" xmlns="http://www.w3.org/2000/svg">
<path d="M1.00293 7H18.4449M14.5689 11.0014L4.87893 11M8.10889 15.0005L4.87893 15M4.87893 1V3M14.5689 1V3M4.10373 19H15.3441C16.4295 19 16.9722 19 17.3868 18.782C17.7514 18.5903 18.0479 18.2843 18.2337 17.908C18.4449 17.4802 18.4449 16.9201 18.4449 15.8V6.2C18.4449 5.07989 18.4449 4.51984 18.2337 4.09202C18.0479 3.71569 17.7514 3.40973 17.3868 3.21799C16.9722 3 16.4295 3 15.3441 3H4.10373C3.01835 3 2.47565 3 2.0611 3.21799C1.69643 3.40973 1.39996 3.71569 1.21416 4.09202C1.00293 4.51984 1.00293 5.07989 1.00293 6.2V15.8C1.00293 16.9201 1.00293 17.4802 1.21416 17.908C1.39996 18.2843 1.69643 18.5903 2.0611 18.782C2.47565 19 3.01834 19 4.10373 19Z" stroke="#565656" stroke-linecap="round" stroke-linejoin="round"/>
</svg>
