<svg
    width="35"
    height="35"
    viewBox="0 0 35 35"
    stroke="currentColor"
    fill="none"
    xmlns="http://www.w3.org/2000/svg"
>
<path
        fill-rule="evenodd"
        clip-rule="evenodd"
        fill="currentColor"
        d="M7.29167 4.375C5.68084 4.375 4.375 5.68084 4.375 7.29167V13.125C4.375 14.7359 5.68084 16.0417 7.29167 16.0417H21.875C23.4859 16.0417 24.7917 14.7359 24.7917 13.125V7.29167C24.7917 5.68084 23.4859 4.375 21.875 4.375H7.29167ZM7.29167 18.9583C5.68084 18.9583 4.375 20.2641 4.375 21.875V27.7083C4.375 29.3192 5.68084 30.625 7.29167 30.625H27.7083C29.3192 30.625 30.625 29.3192 30.625 27.7083V21.875C30.625 20.2641 29.3192 18.9583 27.7083 18.9583H7.29167Z"
    />
</svg>
