<svg width="72" height="62" viewBox="0 0 72 62" fill="none" xmlns="http://www.w3.org/2000/svg">
<path d="M40.1321 56.3965C54.752 56.3965 66.6038 44.5447 66.6038 29.9248C66.6038 15.3049 54.752 3.45312 40.1321 3.45312C25.5122 3.45312 13.6604 15.3049 13.6604 29.9248C13.6604 44.5447 25.5122 56.3965 40.1321 56.3965Z" fill="#EDEBDC"/>
<path d="M32.6729 58.7197L34.0712 60.1181" stroke="#4C241D" stroke-width="2" stroke-linecap="round" stroke-linejoin="round"/>
<path d="M27.7781 53.8252L29.1765 55.2236" stroke="#4C241D" stroke-width="2" stroke-linecap="round" stroke-linejoin="round"/>
<path d="M32.6729 55.2236L34.0712 53.8252" stroke="#4C241D" stroke-width="2" stroke-linecap="round" stroke-linejoin="round"/>
<path d="M27.7781 60.1181L29.1765 58.7197" stroke="#4C241D" stroke-width="2" stroke-linecap="round" stroke-linejoin="round"/>
<path d="M50.4906 5.75514C51.7619 5.75514 52.7925 4.72455 52.7925 3.45325C52.7925 2.18196 51.7619 1.15137 50.4906 1.15137C49.2193 1.15137 48.1887 2.18196 48.1887 3.45325C48.1887 4.72455 49.2193 5.75514 50.4906 5.75514Z" stroke="#4C241D" stroke-width="2" stroke-linecap="round" stroke-linejoin="round"/>
<path d="M17.2708 4.25488V5.88347" stroke="#4C241D" stroke-width="2" stroke-linecap="round" stroke-linejoin="round"/>
<path d="M17.2708 10.7686V12.3971" stroke="#4C241D" stroke-width="2" stroke-linecap="round" stroke-linejoin="round"/>
<path d="M13.2002 8.32617H14.8276" stroke="#4C241D" stroke-width="2" stroke-linecap="round" stroke-linejoin="round"/>
<path d="M19.7131 8.32617H21.3417" stroke="#4C241D" stroke-width="2" stroke-linecap="round" stroke-linejoin="round"/>
<path d="M10.7831 3.45283C11.7365 3.45283 12.5095 2.67989 12.5095 1.72642C12.5095 0.772942 11.7365 0 10.7831 0C9.82958 0 9.05664 0.772942 9.05664 1.72642C9.05664 2.67989 9.82958 3.45283 10.7831 3.45283Z" fill="#4C241D"/>
<path d="M9.63218 60.9997C10.5856 60.9997 11.3586 60.2268 11.3586 59.2733C11.3586 58.3198 10.5856 57.5469 9.63218 57.5469C8.6787 57.5469 7.90576 58.3198 7.90576 59.2733C7.90576 60.2268 8.6787 60.9997 9.63218 60.9997Z" fill="#4C241D"/>
<path d="M42.7827 46.0377H1V18.415H63.1509V46.0377H52.7925" fill="#A9BA5A"/>
<path d="M42.7827 46.0377H1V18.415H63.1509V46.0377H52.7925" stroke="#4C241D" stroke-width="2" stroke-linecap="round" stroke-linejoin="round"/>
<path d="M32.0755 42.5851C37.7964 42.5851 42.434 37.9475 42.434 32.2267C42.434 26.5058 37.7964 21.8682 32.0755 21.8682C26.3547 21.8682 21.717 26.5058 21.717 32.2267C21.717 37.9475 26.3547 42.5851 32.0755 42.5851Z" fill="#FFEC95"/>
<path d="M18.2642 21.8682H10.2076C10.2076 23.3944 9.6013 24.8581 8.52208 25.9374C7.44286 27.0166 5.97913 27.6229 4.45288 27.6229V35.6795" stroke="#4C241D" stroke-width="2" stroke-linecap="round" stroke-linejoin="round"/>
<path d="M5.60382 24.1701C6.23947 24.1701 6.75477 23.6548 6.75477 23.0191C6.75477 22.3835 6.23947 21.8682 5.60382 21.8682C4.96818 21.8682 4.45288 22.3835 4.45288 23.0191C4.45288 23.6548 4.96818 24.1701 5.60382 24.1701Z" fill="#4C241D"/>
<path d="M58.5473 61.0003C64.9038 61.0003 70.0567 55.8474 70.0567 49.4909C70.0567 43.1344 64.9038 37.9814 58.5473 37.9814C52.1908 37.9814 47.0378 43.1344 47.0378 49.4909C47.0378 55.8474 52.1908 61.0003 58.5473 61.0003Z" fill="#FFCE56" stroke="#4C241D" stroke-width="2" stroke-linecap="round" stroke-linejoin="round"/>
<path d="M58.5471 57.5468C62.9966 57.5468 66.6037 53.9397 66.6037 49.4902C66.6037 45.0407 62.9966 41.4336 58.5471 41.4336C54.0975 41.4336 50.4905 45.0407 50.4905 49.4902C50.4905 53.9397 54.0975 57.5468 58.5471 57.5468Z" stroke="#FFEC95" stroke-width="2" stroke-linecap="round" stroke-linejoin="round"/>
<path d="M29.7736 37.9811V26.4717H33.8019C34.565 26.4717 35.2969 26.7748 35.8365 27.3144C36.3761 27.854 36.6792 28.5859 36.6792 29.349C36.6792 30.1122 36.3761 30.844 35.8365 31.3836C35.2969 31.9232 34.565 32.2264 33.8019 32.2264H27.4717" stroke="#4C241D" stroke-width="2" stroke-linecap="round" stroke-linejoin="round"/>
<path d="M27.4717 35.6797H34.3773" stroke="#4C241D" stroke-width="2" stroke-linecap="round" stroke-linejoin="round"/>
</svg>
