<svg width="56" height="56" viewBox="0 0 56 56" fill="none" xmlns="http://www.w3.org/2000/svg">
<path d="M3.51846 52.9275C2.70773 52.1568 2.82726 22.1517 3.51846 21.3331C3.99398 20.7731 52.0012 20.7731 52.9575 21.3331C53.841 21.8501 53.6019 52.432 52.9575 52.9275C51.5283 54.0165 4.52668 53.8849 3.51846 52.9275Z" fill="#191919"/>
<path d="M29.2436 55.6102H28.0769C21.8145 55.6102 15.8951 55.5265 11.4023 55.3996C2.97021 55.1603 2.67398 54.8778 2.02436 54.2627C1.37473 53.6476 0.844639 53.133 0.875821 37.1443C0.875821 33.1495 0.940783 29.351 1.03433 26.4501C1.21362 20.945 1.4215 20.7057 1.88144 20.1576C2.55965 19.3581 3.46392 19.3246 5.65446 19.2409C6.98489 19.1906 8.87659 19.1451 11.275 19.1092C15.7184 19.0422 21.669 19.0039 28.0587 19.0039C34.4484 19.0039 40.4301 19.0422 44.9307 19.1092C53.2459 19.2337 53.4668 19.3677 54.0723 19.722C55.1117 20.3275 55.226 21.3639 55.3585 23.2979C55.6184 27.1993 55.6469 35.0859 55.5846 40.6532C55.4391 53.5231 55.148 53.7457 54.2853 54.4039C53.6513 54.8826 53.2304 55.2081 44.8346 55.4379C40.6614 55.548 35.1604 55.6102 29.2436 55.6102ZM5.32445 51.3019C12.1923 51.929 44.3461 51.9386 51.1126 51.3187C51.479 46.4766 51.6323 28.1016 51.1931 23.0753C44.133 22.7354 12.5171 22.7354 5.33744 23.0753C4.92688 28.2117 4.91648 46.5317 5.32445 51.3019Z" fill="#191919"/>
<path d="M3.51846 52.9265C2.70773 52.1558 2.82726 22.1508 3.51846 21.3322C3.99398 20.7721 52.0012 20.7721 52.9575 21.3322C53.841 21.8492 53.6019 52.431 52.9575 52.9265C51.5283 54.0155 4.52668 53.8839 3.51846 52.9265Z" fill="#E83A2A"/>
<path d="M53.2641 26.4478C53.4564 26.1845 53.5084 18.98 53.0043 18.7885C51.5491 18.1997 4.61764 18.2404 3.42493 18.9058C2.97279 19.1452 2.93641 26.1606 3.13909 26.4574C3.34177 26.7541 53.0718 26.7111 53.2641 26.4478Z" fill="#191919"/>
<path d="M26.5411 28.5748C19.1691 28.5748 11.5269 28.5509 6.95618 28.4791C5.72709 28.4623 4.77345 28.4432 4.11862 28.424C2.88694 28.3857 1.99565 28.3594 1.38241 27.4666C1.08358 27.0286 0.901683 26.7629 0.953653 23.1583C0.974441 21.6337 1.0498 19.6231 1.28886 18.704C1.35142 18.4081 1.47886 18.127 1.66339 17.8781C1.84791 17.6291 2.08564 17.4174 2.36204 17.2559C2.9415 16.9352 3.26112 16.7581 11.4386 16.6025C15.856 16.5187 21.7728 16.4661 28.1235 16.4541C34.3781 16.4541 40.3235 16.4732 44.8553 16.5403C52.9418 16.6575 53.3601 16.8251 53.8409 17.019C54.156 17.1488 54.4348 17.343 54.6564 17.5868C54.8779 17.8307 55.0362 18.1178 55.1193 18.4264C55.2025 18.6896 55.4597 19.4867 55.4805 23.041C55.5013 26.8036 55.3116 27.0693 54.992 27.5073C54.3632 28.3714 53.6564 28.3881 51.7621 28.4312C50.8032 28.4528 49.4234 28.4743 47.6357 28.4911C44.3096 28.5246 39.7544 28.5485 34.4587 28.5629C31.9719 28.5724 29.2773 28.5748 26.5411 28.5748ZM5.09826 24.6303C12.7171 24.7811 43.6444 24.7715 51.3125 24.6184C51.3359 23.3761 51.3125 21.6576 51.245 20.5302C44.1147 20.1712 12.1532 20.2382 5.1996 20.6284C5.12164 21.7366 5.08786 23.4144 5.09826 24.6303Z" fill="#191919"/>
<path d="M53.2641 26.4478C53.4564 26.1845 53.5084 18.98 53.0043 18.7885C51.5491 18.1997 4.61764 18.2404 3.42493 18.9058C2.97279 19.1452 2.93641 26.1606 3.13909 26.4574C3.34177 26.7541 53.0718 26.7111 53.2641 26.4478Z" fill="white"/>
<path d="M2.60388 26.9504C2.60388 26.9504 12.7094 18.2284 12.5691 17.9484C12.3638 17.5511 2.69483 17.5846 2.47656 17.8455C2.25828 18.1064 0.771944 27.5631 2.60388 26.9504Z" fill="#191919"/>
<path d="M52.7782 9.22889C52.9263 8.94167 51.8116 2.06033 51.2893 1.93347C49.751 1.5553 3.24825 7.80236 2.16728 8.61376C1.75931 8.9297 2.84289 15.8637 3.09234 16.1294C3.3418 16.3951 52.6327 9.51611 52.7782 9.22889Z" fill="#191919"/>
<path d="M3.20414 18.0439C2.88509 18.0624 2.56576 18.0117 2.27192 17.8957C1.97808 17.7797 1.71795 17.6017 1.51252 17.3761C1.14873 16.9907 0.927861 16.7514 0.400366 13.1731C0.176895 11.6628 -0.0699624 9.6618 0.0183865 8.72115C0.0325548 8.41973 0.113382 8.12416 0.255916 7.85252C0.39845 7.58089 0.599689 7.33892 0.847307 7.14143C1.36701 6.74411 1.66064 6.5263 9.74197 5.28646C14.0919 4.61867 19.9567 3.78334 26.2554 2.93125C32.4502 2.09352 38.3436 1.33717 42.852 0.801028C50.8814 -0.156376 51.3179 -0.0438811 51.8246 0.0829749C52.1598 0.169038 52.4693 0.324354 52.7296 0.537118C52.9898 0.749882 53.194 1.0145 53.3266 1.31085C53.6618 1.97624 54.0308 3.44825 54.4231 5.68618C55.052 9.27644 54.9039 9.57085 54.657 10.0495C54.1737 10.9878 53.5137 11.0955 51.557 11.4115C50.58 11.5694 49.1638 11.7872 47.3474 12.0577C43.9486 12.5627 39.3155 13.2305 33.9496 13.9869C24.5742 15.3153 12.4834 16.9668 6.60558 17.692C5.56618 17.8213 4.76064 17.9146 4.20716 17.9721C3.87452 18.013 3.53967 18.037 3.20414 18.0439ZM4.19937 10.0902C4.29811 11.1984 4.53458 12.8547 4.73986 14.0539C12.3145 13.1611 42.9689 8.89827 50.5488 7.68955C50.3721 6.51673 50.0836 4.93941 49.8368 3.89584C42.7507 4.47746 11.049 8.78099 4.19937 10.0902Z" fill="#191919"/>
<path d="M52.7782 9.22889C52.9263 8.94167 51.8116 2.06033 51.2893 1.93347C49.751 1.5553 3.24825 7.80236 2.16728 8.61376C1.75931 8.9297 2.84289 15.8637 3.09234 16.1294C3.3418 16.3951 52.6327 9.51611 52.7782 9.22889Z" fill="white"/>
<path d="M2.16714 8.61381C2.16714 8.61381 12.6547 15.3994 12.5611 15.6914C12.4234 16.1127 2.85574 17.3884 2.59589 17.1586C2.33604 16.9289 0.254642 8.26435 2.16714 8.61381Z" fill="#191919"/>
<path d="M12.057 6.20585C12.0103 6.4452 23.4358 14.4323 24.0101 14.3438L33.8402 12.9986C34.3391 12.9292 22.173 4.57587 21.5909 4.65485C21.0089 4.73384 12.1038 5.9641 12.057 6.20585Z" fill="#191919"/>
<path d="M32.2997 3.43436C32.2529 3.67371 43.6785 11.6609 44.2528 11.5723L54.0829 10.2271C54.5818 10.1577 42.4157 1.80438 41.8336 1.88337C41.2515 1.96235 32.3465 3.19501 32.2997 3.43436Z" fill="#191919"/>
<path d="M13.5955 26.9885C13.5123 26.7491 23.5347 17.3115 24.122 17.3115H34.0612C34.5654 17.3115 23.8699 27.2207 23.2801 27.2207C22.6902 27.2207 13.6786 27.2206 13.5955 26.9885Z" fill="#191919"/>
<path d="M34.0613 26.9885C33.9782 26.7491 44.0006 17.3115 44.5878 17.3115C45.1751 17.3115 53.5163 17.4671 53.5163 17.9314C53.5163 18.087 44.3358 27.223 43.7459 27.223C43.156 27.223 34.1445 27.2206 34.0613 26.9885Z" fill="#191919"/>
<path d="M28.8542 49.0379C24.9252 49.0379 21.0145 49.0091 18.125 48.9613C12.8708 48.8727 12.6993 48.7698 12.3927 48.5855C11.8886 48.2863 11.7587 47.8315 11.6573 46.034C11.569 44.4256 11.543 41.8861 11.595 39.5715C11.6911 35.2297 11.9094 35.067 12.3069 34.7845C12.6629 34.5212 12.6915 34.4997 17.7638 34.4518C20.5078 34.4255 24.1899 34.4111 28.1292 34.4111C43.281 34.4111 43.6916 34.5619 43.9099 34.6505C44.6426 34.921 44.7466 35.5911 44.8401 37.3049C44.9259 38.8966 44.9441 41.4528 44.8843 43.8176C44.8557 44.9569 44.8115 45.9407 44.757 46.6587C44.6712 47.81 44.6011 48.3749 44.0008 48.6621C43.728 48.765 43.1563 49.0379 28.8542 49.0379Z" fill="white"/>
<path d="M28.1291 35.3494C35.6647 35.3494 43.229 35.4044 43.5252 35.5121C44.0709 35.7132 43.9254 47.5922 43.5252 47.7837C43.125 47.9751 36.0675 48.0828 28.8567 48.0828C21.1703 48.0828 13.2787 47.9775 12.9565 47.7837C12.455 47.4845 12.5277 35.8305 12.9565 35.5121C13.1046 35.4044 20.5986 35.3494 28.1291 35.3494ZM28.1291 33.4346C24.1846 33.4346 20.4999 33.4489 17.7507 33.4753C16.267 33.4896 15.0976 33.5064 14.2739 33.5279C12.7616 33.5638 12.2523 33.5758 11.652 34.021C10.8257 34.6337 10.7581 35.5241 10.675 36.6538C10.6204 37.391 10.5788 38.3915 10.5529 39.5524C10.5009 41.898 10.5269 44.4663 10.6178 46.0938C10.7036 47.6448 10.7659 48.7626 11.8261 49.3945C12.4004 49.7368 12.5537 49.8277 18.1067 49.9235C21.0014 49.9737 24.9199 50 28.8567 50C32.6557 50 36.1766 49.9737 38.7751 49.9282C43.7513 49.8373 43.9955 49.72 44.4918 49.4878C45.6352 48.9397 45.7183 47.8531 45.8041 46.7018C45.8586 45.9694 45.9028 44.9737 45.934 43.8296C45.9938 41.4361 45.9756 38.8631 45.8872 37.2474C45.8534 36.6371 45.8119 36.1632 45.7599 35.8113C45.6949 35.3733 45.526 34.2077 44.3047 33.7601C43.8656 33.5997 43.7331 33.5495 38.5699 33.5016C35.7869 33.4753 32.0736 33.4609 28.1369 33.4609L28.1291 33.4346Z" fill="#191919"/>
<path d="M16.9606 38.5037C15.5964 38.5037 15.5314 40.3575 16.8307 40.4484C18.1299 40.5393 37.4576 40.5393 38.367 40.4484C39.2765 40.3575 39.7312 38.6544 38.2709 38.5659C36.8105 38.4773 18.6496 38.5037 16.9606 38.5037Z" fill="#191919"/>
<path d="M16.9606 42.4529C15.5964 42.4529 15.5314 44.3067 16.8307 44.3976C18.1299 44.4885 28.103 44.4885 29.0124 44.3976C29.9219 44.3067 30.3766 42.6036 28.9163 42.5151C27.4559 42.4266 18.6496 42.4529 16.9606 42.4529Z" fill="#191919"/>
</svg>
