<svg width="57" height="59" viewBox="0 0 57 59" fill="none" xmlns="http://www.w3.org/2000/svg">
<path d="M28.5 57C44.2401 57 57 44.2401 57 28.5C57 12.7599 44.2401 0 28.5 0C12.7599 0 0 12.7599 0 28.5C0 44.2401 12.7599 57 28.5 57Z" fill="#A7AECE"/>
<path opacity="0.2" d="M28.5 51.3002C41.092 51.3002 51.3 41.0923 51.3 28.5002C51.3 15.9081 41.092 5.7002 28.5 5.7002C15.9079 5.7002 5.69995 15.9081 5.69995 28.5002C5.69995 41.0923 15.9079 51.3002 28.5 51.3002Z" fill="#515570"/>
<path d="M42.275 29.45C43.8491 29.45 45.125 28.174 45.125 26.6C45.125 25.026 43.8491 23.75 42.275 23.75C40.701 23.75 39.425 25.026 39.425 26.6C39.425 28.174 40.701 29.45 42.275 29.45Z" fill="#393C54"/>
<path d="M42.2751 25.1748C43.5868 25.1748 44.6501 24.1115 44.6501 22.7998C44.6501 21.4881 43.5868 20.4248 42.2751 20.4248C40.9635 20.4248 39.9001 21.4881 39.9001 22.7998C39.9001 24.1115 40.9635 25.1748 42.2751 25.1748Z" fill="#393C54"/>
<path d="M40.5268 32.9456C42.6071 32.9456 44.2935 31.2592 44.2935 29.1789C44.2935 27.0985 42.6071 25.4121 40.5268 25.4121C38.4464 25.4121 36.76 27.0985 36.76 29.1789C36.76 31.2592 38.4464 32.9456 40.5268 32.9456Z" fill="#FBC0AA"/>
<path d="M28.5001 56.9998C35.4758 57.0083 42.2105 54.4483 47.4193 49.8083L46.3601 47.3288C45.5478 45.4288 43.4056 44.1748 40.9973 44.1748H16.0028C13.5946 44.1748 11.4523 45.4383 10.6401 47.3288L9.58081 49.8083C14.7896 54.4483 21.5243 57.0083 28.5001 56.9998Z" fill="#393C54"/>
<path d="M34.8791 44.9965C34.8791 46.6884 34.207 48.311 33.0107 49.5073C31.8143 50.7037 30.1917 51.3758 28.4999 51.3758C26.808 51.3758 25.1854 50.7037 23.989 49.5073C22.7927 48.311 22.1206 46.6884 22.1206 44.9965C22.1206 42.6215 24.9706 43.4528 28.4999 43.4528C32.0291 43.4528 34.8791 42.5978 34.8791 44.9965Z" fill="white"/>
<path d="M21.8501 56.2594C26.0609 57.2724 30.4476 57.3097 34.6751 56.3686V45.1729H21.8501V56.2594Z" fill="white"/>
<path d="M35.3543 44.9971C35.3543 48.5216 32.0293 51.3763 28.5 51.3763C24.9708 51.3763 21.6458 48.5263 21.6458 44.9971" stroke="#393C54" stroke-width="2" stroke-miterlimit="10" stroke-linecap="round"/>
<path d="M24.5672 56.7245L22.3252 43.9375L16.4447 48.8063C16.3311 48.9078 16.2435 49.0352 16.1895 49.1777C16.1354 49.3202 16.1164 49.4736 16.1341 49.625C16.1518 49.7764 16.2057 49.9213 16.2912 50.0475C16.3766 50.1736 16.4912 50.2774 16.6252 50.35L19.2615 51.737L19.0857 55.404C20.8645 56.0252 22.7007 56.4676 24.5672 56.7245Z" fill="#515570"/>
<path d="M34.6749 43.9375L32.4329 56.7245C34.2942 56.4699 36.1257 56.0307 37.9001 55.4135L37.7244 51.737L40.3416 50.35C40.4766 50.2787 40.5925 50.176 40.6793 50.0504C40.7662 49.9249 40.8215 49.7803 40.8406 49.6288C40.8597 49.4773 40.8421 49.3235 40.7891 49.1803C40.7361 49.0371 40.6494 48.9088 40.5364 48.8063L34.6749 43.9375Z" fill="#515570"/>
<path d="M28.5 40.7314V44.8877" stroke="#FBC0AA" stroke-width="20" stroke-linecap="round" stroke-linejoin="round"/>
<path d="M14.725 29.45C16.299 29.45 17.575 28.174 17.575 26.6C17.575 25.026 16.299 23.75 14.725 23.75C13.151 23.75 11.875 25.026 11.875 26.6C11.875 28.174 13.151 29.45 14.725 29.45Z" fill="#393C54"/>
<path d="M14.7251 25.1748C16.0368 25.1748 17.1001 24.1115 17.1001 22.7998C17.1001 21.4881 16.0368 20.4248 14.7251 20.4248C13.4134 20.4248 12.3501 21.4881 12.3501 22.7998C12.3501 24.1115 13.4134 25.1748 14.7251 25.1748Z" fill="#393C54"/>
<path d="M16.473 32.9456C18.5534 32.9456 20.2398 31.2592 20.2398 29.1789C20.2398 27.0985 18.5534 25.4121 16.473 25.4121C14.3927 25.4121 12.7063 27.0985 12.7063 29.1789C12.7063 31.2592 14.3927 32.9456 16.473 32.9456Z" fill="#FBC0AA"/>
<path d="M28.5 44.4699C23.275 44.4699 16.625 38.7272 16.625 31.6449L15.675 23.2137C15.675 19.8123 17.0262 16.5502 19.4314 14.145C21.8366 11.7399 25.0986 10.3887 28.5 10.3887C31.9014 10.3887 35.1635 11.7399 37.5687 14.145C39.9738 16.5502 41.325 19.8123 41.325 23.2137L40.375 31.6449C40.375 38.7272 33.725 44.4699 28.5 44.4699Z" fill="#FFD8C9"/>
<path d="M34.9125 30.058C35.6996 30.058 36.3375 29.42 36.3375 28.633C36.3375 27.846 35.6996 27.208 34.9125 27.208C34.1255 27.208 33.4875 27.846 33.4875 28.633C33.4875 29.42 34.1255 30.058 34.9125 30.058Z" fill="#393C54"/>
<path d="M22.0874 30.058C22.8744 30.058 23.5124 29.42 23.5124 28.633C23.5124 27.846 22.8744 27.208 22.0874 27.208C21.3003 27.208 20.6624 27.846 20.6624 28.633C20.6624 29.42 21.3003 30.058 22.0874 30.058Z" fill="#393C54"/>
<path opacity="0.4" d="M23.6596 24.7003C22.0874 24.5103 20.4946 24.8 19.0901 25.5316" stroke="#515570" stroke-width="2" stroke-linecap="round" stroke-linejoin="round"/>
<path opacity="0.4" d="M33.3401 24.7003C34.9122 24.5103 36.5051 24.8 37.9096 25.5316" stroke="#515570" stroke-width="2" stroke-linecap="round" stroke-linejoin="round"/>
<path d="M25.688 37.5252C25.636 37.5238 25.5849 37.5113 25.5381 37.4886C25.4912 37.4659 25.4498 37.4334 25.4165 37.3934C25.3833 37.3534 25.3589 37.3067 25.3451 37.2566C25.3313 37.2064 25.3284 37.1538 25.3365 37.1024C25.536 35.4542 28.5 34.2002 28.5 34.2002C28.5 34.2002 31.464 35.4779 31.6635 37.1262C31.6717 37.1776 31.6687 37.2301 31.6549 37.2803C31.6411 37.3305 31.6168 37.3771 31.5835 37.4172C31.5502 37.4572 31.5088 37.4896 31.462 37.5124C31.4152 37.5351 31.364 37.5476 31.312 37.5489L25.688 37.5252Z" fill="#393C54"/>
<path d="M41.325 20.4247V12.5445C41.325 4.96823 34.9125 2.46973 28.5 2.46973C21.66 2.46973 15.675 4.96823 15.675 12.5445V20.4247H41.325Z" fill="#393C54"/>
<path d="M15.675 20.4248V26.1248" stroke="#393C54" stroke-width="4" stroke-miterlimit="10" stroke-linecap="round"/>
<path d="M41.325 20.4248V26.1248" stroke="#393C54" stroke-width="4" stroke-miterlimit="10" stroke-linecap="round"/>
<path d="M36.1001 20.4248V21.8498C36.1001 22.1018 36.2002 22.3434 36.3783 22.5216C36.5565 22.6997 36.7981 22.7998 37.0501 22.7998H38.0001C38.2521 22.7998 38.4937 22.8999 38.6718 23.0781C38.85 23.2562 38.9501 23.4978 38.9501 23.7498C38.9501 24.0018 39.0502 24.2434 39.2283 24.4216C39.4065 24.5997 39.6481 24.6998 39.9001 24.6998H40.8501V20.4248H36.1001Z" fill="#393C54"/>
<path d="M41.325 16.625H15.675V20.425H41.325V16.625Z" fill="white"/>
<path d="M13.3 20.4248H43.7" stroke="#515570" stroke-width="4" stroke-linecap="round" stroke-linejoin="round"/>
<path d="M30.4001 32.7751C30.4001 34.3901 29.5498 35.7011 28.5001 35.7011C27.4503 35.7011 26.6001 34.3948 26.6001 32.7751C26.6001 31.1553 27.4503 28.6426 28.5001 28.6426C29.5498 28.6426 30.4001 31.1601 30.4001 32.7751Z" fill="#FBC0AA"/>
<path d="M28.5 51.7754V56.5254" stroke="#393C54" stroke-width="3" stroke-miterlimit="10" stroke-linecap="round"/>
<path d="M26.125 38.9502H30.875" stroke="#F85565" stroke-width="2" stroke-linecap="round" stroke-linejoin="round"/>
<path opacity="0.2" d="M26.8186 42.2466C27.0392 42.0254 27.3013 41.8499 27.5898 41.7302C27.8784 41.6105 28.1877 41.5488 28.5001 41.5488C28.8125 41.5488 29.1218 41.6105 29.4104 41.7302C29.6989 41.8499 29.961 42.0254 30.1816 42.2466" stroke="#515570" stroke-width="2" stroke-linecap="round" stroke-linejoin="round"/>
</svg>
