<svg width="55" height="55" viewBox="0 0 55 55" fill="none" xmlns="http://www.w3.org/2000/svg">
<g clip-path="url(#clip0_4_2)">
<mask id="mask0_4_2" style="mask-type:luminance" maskUnits="userSpaceOnUse" x="0" y="0" width="55" height="55">
<path d="M55 0H0V55H55V0Z" fill="white"/>
</mask>
<g mask="url(#mask0_4_2)">
<path d="M11.7464 0L0 11.7857V55H43.6207L55 43.5826V0H11.7464Z" fill="#4442AB"/>
<path fill-rule="evenodd" clip-rule="evenodd" d="M10.0334 18.5994H20.7343L23.9479 20.486V28.9588L20.7343 30.8111L24.9736 38.3577H20.7343L16.3924 30.8111H13.9992V38.3577H10.0334V18.5994ZM13.9308 21.9611H20.0847V27.5181H13.9308V21.9611Z" fill="white"/>
<path d="M20.7343 18.5993L20.7497 18.5728L20.7426 18.5686H20.7343V18.5993ZM10.0334 18.5993V18.5686H10.0028V18.5993H10.0334ZM23.9479 20.4859H23.9785V20.4683L23.9634 20.4595L23.9479 20.4859ZM23.9479 28.9587L23.9632 28.9853L23.9785 28.9764V28.9587H23.9479ZM20.7343 30.811L20.719 30.7844L20.6927 30.7996L20.7076 30.8261L20.7343 30.811ZM24.9736 38.3576V38.3883H25.026L25.0002 38.3426L24.9736 38.3576ZM20.7343 38.3576L20.7078 38.373L20.7166 38.3883H20.7343V38.3576ZM16.3924 30.811L16.4189 30.7957L16.41 30.7803H16.3924V30.811ZM13.9992 30.811V30.7803H13.9686V30.811H13.9992ZM13.9992 38.3576V38.3883H14.0298V38.3576H13.9992ZM10.0334 38.3576H10.0028V38.3883H10.0334V38.3576ZM20.0847 21.961H20.1153V21.9303H20.0847V21.961ZM13.9308 21.961V21.9303H13.9002V21.961H13.9308ZM20.0847 27.518V27.5487H20.1153V27.518H20.0847ZM13.9308 27.518H13.9002V27.5487H13.9308V27.518ZM20.7343 18.5686H10.0334V18.63H20.7343V18.5686ZM23.9634 20.4595L20.7497 18.5728L20.7188 18.6258L23.9325 20.5124L23.9634 20.4595ZM23.9785 28.9587V20.4859H23.9173V28.9587H23.9785ZM20.7495 30.8377L23.9632 28.9853L23.9327 28.9321L20.719 30.7844L20.7495 30.8377ZM25.0002 38.3426L20.7609 30.796L20.7076 30.8261L24.9469 38.3727L25.0002 38.3426ZM20.7343 38.3883H24.9736V38.3269H20.7343V38.3883ZM16.3659 30.8264L20.7078 38.373L20.7608 38.3423L16.4189 30.7957L16.3659 30.8264ZM13.9992 30.8417H16.3924V30.7803H13.9992V30.8417ZM14.0298 38.3576V30.811H13.9686V38.3576H14.0298ZM10.0334 38.3883H13.9992V38.3269H10.0334V38.3883ZM10.0028 18.5993V38.3576H10.064V18.5993H10.0028ZM20.0847 21.9303H13.9308V21.9917H20.0847V21.9303ZM20.1153 27.518V21.961H20.0541V27.518H20.1153ZM13.9308 27.5487H20.0847V27.4873H13.9308V27.5487ZM13.9002 21.961V27.518H13.9614V21.961H13.9002Z" fill="white"/>
<path d="M28.8154 38.365H32.5896V23.3742L41.1925 38.365H44.9666V18.5994H41.1287V33.3958L32.5896 18.5994H28.8154V38.365Z" fill="#D9D9D9" stroke="white"/>
</g>
</g>
<defs>
<clipPath id="clip0_4_2">
<rect width="55" height="55" fill="white"/>
</clipPath>
</defs>
</svg>
