<svg fill="#000000" viewBox="-5.5 0 36 36" style="fill-rule:evenodd;clip-rule:evenodd;stroke-linejoin:round;stroke-miterlimit:2;" version="1.1" xml:space="preserve" xmlns="http://www.w3.org/2000/svg" xmlns:serif="http://www.serif.com/" xmlns:xlink="http://www.w3.org/1999/xlink"><g id="SVGRepo_bgCarrier" stroke-width="0"></g><g id="SVGRepo_tracerCarrier" stroke-linecap="round" stroke-linejoin="round"></g><g id="SVGRepo_iconCarrier"> <g transform="matrix(1,0,0,1,-7,-2)"> <g id="sharkalert-nft-investiment-sign-animal-warning-concept"> <g transform="matrix(1,0,0,1,0,-85)"> <rect height="1" style="fill:#639bff;" width="1" x="27" y="122"></rect> </g> <g transform="matrix(1,0,0,1,0,-85)"> <rect height="1" style="fill:#639bff;" width="1" x="26" y="122"></rect> </g> <g transform="matrix(1,0,0,1,0,-85)"> <rect height="1" style="fill:#5b6ee1;" width="1" x="25" y="122"></rect> </g> <g transform="matrix(1,0,0,1,0,-85)"> <rect height="1" style="fill:#639bff;" width="1" x="24" y="122"></rect> </g> <g transform="matrix(1,0,0,1,0,-85)"> <rect height="1" style="fill:#5b6ee1;" width="1" x="23" y="122"></rect> </g> <g transform="matrix(1,0,0,1,0,-85)"> <rect height="1" style="fill:#639bff;" width="1.001" x="22" y="122"></rect> </g> <g transform="matrix(1,0,0,1,0,-85)"> <rect height="1" style="fill:#5b6ee1;" width="1" x="21" y="122"></rect> </g> <g transform="matrix(1,0,0,1,0,-85)"> <rect height="1" style="fill:#5b6ee1;" width="1" x="20" y="122"></rect> </g> <g transform="matrix(1,0,0,1,0,-85)"> <rect height="1" style="fill:#5b6ee1;" width="1" x="19" y="122"></rect> </g> <g transform="matrix(1,0,0,1,0,-85)"> <rect height="1" style="fill:#5b6ee1;" width="1" x="18" y="122"></rect> </g> <g transform="matrix(1,0,0,1,0,-85)"> <rect height="1" style="fill:#5b6ee1;" width="1" x="17" y="122"></rect> </g> <g transform="matrix(1,0,0,1,0,-85)"> <rect height="1" style="fill:#639bff;" width="1" x="16" y="122"></rect> </g> <g transform="matrix(1,0,0,1,0,-85)"> <rect height="1" style="fill:#5b6ee1;" width="1" x="15" y="122"></rect> </g> <g transform="matrix(1,0,0,1,0,-85)"> <rect height="1" style="fill:#639bff;" width="1" x="14" y="122"></rect> </g> <g transform="matrix(1,0,0,1,0,-85)"> <rect height="1" style="fill:#5b6ee1;" width="1.001" x="13" y="122"></rect> </g> <g transform="matrix(1,0,0,1,0,-85)"> <rect height="1" style="fill:#639bff;" width="1" x="12" y="122"></rect> </g> <g transform="matrix(1,0,0,1,0,-85)"> <rect height="1" style="fill:#639bff;" width="1" x="11" y="122"></rect> </g> <g transform="matrix(1,0,0,1,0,-87)"> <rect height="1" style="fill:#639bff;" width="1" x="30" y="123"></rect> </g> <g transform="matrix(1,0,0,1,0,-87)"> <rect height="1" style="fill:#5b6ee1;" width="1" x="29" y="123"></rect> </g> <g transform="matrix(1,0,0,1,0,-87)"> <rect height="1" style="fill:#cbdbfc;" width="1" x="28" y="123"></rect> </g> <g transform="matrix(1,0,0,1,0,-87)"> <rect height="1" style="fill:#5b6ee1;" width="1" x="27" y="123"></rect> </g> <g transform="matrix(1,0,0,1,0,-87)"> <rect height="1" style="fill:#5b6ee1;" width="1" x="26" y="123"></rect> </g> <g transform="matrix(1,0,0,1,0,-87)"> <rect height="1" width="1" x="25" y="123"></rect> </g> <g transform="matrix(1,0,0,1,0,-87)"> <rect height="1" width="1" x="24" y="123"></rect> </g> <g transform="matrix(1,0,0,1,0,-87)"> <rect height="1" width="1" x="23" y="123"></rect> </g> <g transform="matrix(1,0,0,1,0,-87)"> <rect height="1" width="1.001" x="22" y="123"></rect> </g> <g transform="matrix(1,0,0,1,0,-87)"> <rect height="1" width="1" x="21" y="123"></rect> </g> <g transform="matrix(1,0,0,1,0,-87)"> <rect height="1" width="1" x="20" y="123"></rect> </g> <g transform="matrix(1,0,0,1,0,-87)"> <rect height="1" width="1" x="19" y="123"></rect> </g> <g transform="matrix(1,0,0,1,0,-87)"> <rect height="1" width="1" x="18" y="123"></rect> </g> <g transform="matrix(1,0,0,1,0,-87)"> <rect height="1" width="1" x="17" y="123"></rect> </g> <g transform="matrix(1,0,0,1,0,-87)"> <rect height="1" width="1" x="16" y="123"></rect> </g> <g transform="matrix(1,0,0,1,0,-87)"> <rect height="1" width="1" x="15" y="123"></rect> </g> <g transform="matrix(1,0,0,1,0,-87)"> <rect height="1" width="1" x="14" y="123"></rect> </g> <g transform="matrix(1,0,0,1,0,-87)"> <rect height="1" width="1.001" x="13" y="123"></rect> </g> <g transform="matrix(1,0,0,1,0,-87)"> <rect height="1" style="fill:#5b6ee1;" width="1" x="12" y="123"></rect> </g> <g transform="matrix(1,0,0,1,0,-87)"> <rect height="1" style="fill:#5b6ee1;" width="1" x="11" y="123"></rect> </g> <g transform="matrix(1,0,0,1,0,-87)"> <rect height="1" style="fill:#cbdbfc;" width="1" x="10" y="123"></rect> </g> <g transform="matrix(1,0,0,1,0,-87)"> <rect height="1" style="fill:#5b6ee1;" width="1" x="9" y="123"></rect> </g> <g transform="matrix(1,0,0,1,0,-87)"> <rect height="1" style="fill:#639bff;" width="1" x="8" y="123"></rect> </g> <g transform="matrix(1,0,0,1,0,-89)"> <rect height="1" style="fill:#639bff;" width="1.001" x="31" y="124"></rect> </g> <g transform="matrix(1,0,0,1,0,-89)"> <rect height="1" style="fill:#cbdbfc;" width="1" x="30" y="124"></rect> </g> <g transform="matrix(1,0,0,1,0,-89)"> <rect height="1" style="fill:#639bff;" width="1" x="29" y="124"></rect> </g> <g transform="matrix(1,0,0,1,0,-89)"> <rect height="1" width="1" x="28" y="124"></rect> </g> <g transform="matrix(1,0,0,1,0,-89)"> <rect height="1" width="1" x="27" y="124"></rect> </g> <g transform="matrix(1,0,0,1,0,-89)"> <rect height="1" width="1" x="26" y="124"></rect> </g> <g transform="matrix(1,0,0,1,0,-89)"> <rect height="1" style="fill:#ac3232;" width="1" x="25" y="124"></rect> </g> <g transform="matrix(1,0,0,1,0,-89)"> <rect height="1" style="fill:#ac3232;" width="1" x="24" y="124"></rect> </g> <g transform="matrix(1,0,0,1,0,-89)"> <rect height="1" width="1" x="23" y="124"></rect> </g> <g transform="matrix(1,0,0,1,0,-89)"> <rect height="1" style="fill:#d95763;" width="1.001" x="22" y="124"></rect> </g> <g transform="matrix(1,0,0,1,0,-89)"> <rect height="1" style="fill:#d95763;" width="1" x="21" y="124"></rect> </g> <g transform="matrix(1,0,0,1,0,-89)"> <rect height="1" style="fill:#d95763;" width="1" x="20" y="124"></rect> </g> <g transform="matrix(1,0,0,1,0,-89)"> <rect height="1" style="fill:#d95763;" width="1" x="19" y="124"></rect> </g> <g transform="matrix(1,0,0,1,0,-89)"> <rect height="1" style="fill:#d95763;" width="1" x="18" y="124"></rect> </g> <g transform="matrix(1,0,0,1,0,-89)"> <rect height="1" style="fill:#d95763;" width="1" x="17" y="124"></rect> </g> <g transform="matrix(1,0,0,1,0,-89)"> <rect height="1" style="fill:#d95763;" width="1" x="16" y="124"></rect> </g> <g transform="matrix(1,0,0,1,0,-89)"> <rect height="1" width="1" x="15" y="124"></rect> </g> <g transform="matrix(1,0,0,1,0,-89)"> <rect height="1" style="fill:#ac3232;" width="1" x="14" y="124"></rect> </g> <g transform="matrix(1,0,0,1,0,-89)"> <rect height="1" style="fill:#ac3232;" width="1.001" x="13" y="124"></rect> </g> <g transform="matrix(1,0,0,1,0,-89)"> <rect height="1" width="1" x="12" y="124"></rect> </g> <g transform="matrix(1,0,0,1,0,-89)"> <rect height="1" width="1" x="11" y="124"></rect> </g> <g transform="matrix(1,0,0,1,0,-89)"> <rect height="1" width="1" x="10" y="124"></rect> </g> <g transform="matrix(1,0,0,1,0,-89)"> <rect height="1" style="fill:#639bff;" width="1" x="9" y="124"></rect> </g> <g transform="matrix(1,0,0,1,0,-89)"> <rect height="1" style="fill:#cbdbfc;" width="1" x="8" y="124"></rect> </g> <g transform="matrix(1,0,0,1,0,-89)"> <rect height="1" style="fill:#639bff;" width="1" x="7" y="124"></rect> </g> <g transform="matrix(1,0,0,1,0,-91)"> <rect height="1" width="1" x="30" y="125"></rect> </g> <g transform="matrix(1,0,0,1,0,-91)"> <rect height="1" width="1" x="29" y="125"></rect> </g> <g transform="matrix(1,0,0,1,0,-91)"> <rect height="1" style="fill:#cbdbfc;" width="1" x="28" y="125"></rect> </g> <g transform="matrix(1,0,0,1,0,-91)"> <rect height="1" style="fill:#cbdbfc;" width="1" x="27" y="125"></rect> </g> <g transform="matrix(1,0,0,1,0,-91)"> <rect height="1" width="1" x="26" y="125"></rect> </g> <g transform="matrix(1,0,0,1,0,-91)"> <rect height="1" style="fill:#ac3232;" width="1" x="25" y="125"></rect> </g> <g transform="matrix(1,0,0,1,0,-91)"> <rect height="1" style="fill:#ac3232;" width="1" x="24" y="125"></rect> </g> <g transform="matrix(1,0,0,1,0,-91)"> <rect height="1" style="fill:#ac3232;" width="1" x="23" y="125"></rect> </g> <g transform="matrix(1,0,0,1,0,-91)"> <rect height="1" width="1.001" x="22" y="125"></rect> </g> <g transform="matrix(1,0,0,1,0,-91)"> <rect height="1" style="fill:#d95763;" width="1" x="21" y="125"></rect> </g> <g transform="matrix(1,0,0,1,0,-91)"> <rect height="1" style="fill:#d95763;" width="1" x="20" y="125"></rect> </g> <g transform="matrix(1,0,0,1,0,-91)"> <rect height="1" width="1" x="19" y="125"></rect> </g> <g transform="matrix(1,0,0,1,0,-91)"> <rect height="1" style="fill:#d95763;" width="1" x="18" y="125"></rect> </g> <g transform="matrix(1,0,0,1,0,-91)"> <rect height="1" style="fill:#d95763;" width="1" x="17" y="125"></rect> </g> <g transform="matrix(1,0,0,1,0,-91)"> <rect height="1" width="1" x="16" y="125"></rect> </g> <g transform="matrix(1,0,0,1,0,-91)"> <rect height="1" style="fill:#ac3232;" width="1" x="15" y="125"></rect> </g> <g transform="matrix(1,0,0,1,0,-91)"> <rect height="1" style="fill:#ac3232;" width="1" x="14" y="125"></rect> </g> <g transform="matrix(1,0,0,1,0,-91)"> <rect height="1" style="fill:#ac3232;" width="1.001" x="13" y="125"></rect> </g> <g transform="matrix(1,0,0,1,0,-91)"> <rect height="1" width="1" x="12" y="125"></rect> </g> <g transform="matrix(1,0,0,1,0,-91)"> <rect height="1" style="fill:#cbdbfc;" width="1" x="11" y="125"></rect> </g> <g transform="matrix(1,0,0,1,0,-91)"> <rect height="1" style="fill:#cbdbfc;" width="1" x="10" y="125"></rect> </g> <g transform="matrix(1,0,0,1,0,-91)"> <rect height="1" width="1" x="9" y="125"></rect> </g> <g transform="matrix(1,0,0,1,0,-91)"> <rect height="1" width="1" x="8" y="125"></rect> </g> <g transform="matrix(1,0,0,1,0,-93)"> <rect height="1" width="1" x="30" y="126"></rect> </g> <g transform="matrix(1,0,0,1,0,-93)"> <rect height="1" style="fill:#5b6ee1;" width="1" x="29" y="126"></rect> </g> <g transform="matrix(1,0,0,1,0,-93)"> <rect height="1" style="fill:#cbdbfc;" width="1" x="28" y="126"></rect> </g> <g transform="matrix(1,0,0,1,0,-93)"> <rect height="1" style="fill:#cbdbfc;" width="1" x="27" y="126"></rect> </g> <g transform="matrix(1,0,0,1,0,-93)"> <rect height="1" width="1" x="26" y="126"></rect> </g> <g transform="matrix(1,0,0,1,0,-93)"> <rect height="1" style="fill:#ac3232;" width="1" x="25" y="126"></rect> </g> <g transform="matrix(1,0,0,1,0,-93)"> <rect height="1" style="fill:#ac3232;" width="1" x="24" y="126"></rect> </g> <g transform="matrix(1,0,0,1,0,-93)"> <rect height="1" style="fill:#ac3232;" width="1" x="23" y="126"></rect> </g> <g transform="matrix(1,0,0,1,0,-93)"> <rect height="1" style="fill:#ac3232;" width="1.001" x="22" y="126"></rect> </g> <g transform="matrix(1,0,0,1,0,-93)"> <rect height="1" width="1" x="21" y="126"></rect> </g> <g transform="matrix(1,0,0,1,0,-93)"> <rect height="1" width="1" x="20" y="126"></rect> </g> <g transform="matrix(1,0,0,1,0,-93)"> <rect height="1" style="fill:#ac3232;" width="1" x="19" y="126"></rect> </g> <g transform="matrix(1,0,0,1,0,-93)"> <rect height="1" width="1" x="18" y="126"></rect> </g> <g transform="matrix(1,0,0,1,0,-93)"> <rect height="1" width="1" x="17" y="126"></rect> </g> <g transform="matrix(1,0,0,1,0,-93)"> <rect height="1" style="fill:#ac3232;" width="1" x="16" y="126"></rect> </g> <g transform="matrix(1,0,0,1,0,-93)"> <rect height="1" style="fill:#ac3232;" width="1" x="15" y="126"></rect> </g> <g transform="matrix(1,0,0,1,0,-93)"> <rect height="1" style="fill:#ac3232;" width="1" x="14" y="126"></rect> </g> <g transform="matrix(1,0,0,1,0,-93)"> <rect height="1" style="fill:#ac3232;" width="1.001" x="13" y="126"></rect> </g> <g transform="matrix(1,0,0,1,0,-93)"> <rect height="1" width="1" x="12" y="126"></rect> </g> <g transform="matrix(1,0,0,1,0,-93)"> <rect height="1" style="fill:#cbdbfc;" width="1" x="11" y="126"></rect> </g> <g transform="matrix(1,0,0,1,0,-93)"> <rect height="1" style="fill:#cbdbfc;" width="1" x="10" y="126"></rect> </g> <g transform="matrix(1,0,0,1,0,-93)"> <rect height="1" style="fill:#5b6ee1;" width="1" x="9" y="126"></rect> </g> <g transform="matrix(1,0,0,1,0,-93)"> <rect height="1" width="1" x="8" y="126"></rect> </g> <g transform="matrix(1,0,0,1,0,-95)"> <rect height="1" width="1" x="30" y="127"></rect> </g> <g transform="matrix(1,0,0,1,0,-95)"> <rect height="1" style="fill:#5b6ee1;" width="1" x="29" y="127"></rect> </g> <g transform="matrix(1,0,0,1,0,-95)"> <rect height="1" style="fill:#cbdbfc;" width="1" x="28" y="127"></rect> </g> <g transform="matrix(1,0,0,1,0,-95)"> <rect height="1" style="fill:#cbdbfc;" width="1" x="27" y="127"></rect> </g> <g transform="matrix(1,0,0,1,0,-95)"> <rect height="1" width="1" x="26" y="127"></rect> </g> <g transform="matrix(1,0,0,1,0,-95)"> <rect height="1" style="fill:#ac3232;" width="1" x="25" y="127"></rect> </g> <g transform="matrix(1,0,0,1,0,-95)"> <rect height="1" width="1" x="24" y="127"></rect> </g> <g transform="matrix(1,0,0,1,0,-95)"> <rect height="1" style="fill:#ac3232;" width="1" x="23" y="127"></rect> </g> <g transform="matrix(1,0,0,1,0,-95)"> <rect height="1" style="fill:#ac3232;" width="1.001" x="22" y="127"></rect> </g> <g transform="matrix(1,0,0,1,0,-95)"> <rect height="1" style="fill:#ac3232;" width="1" x="21" y="127"></rect> </g> <g transform="matrix(1,0,0,1,0,-95)"> <rect height="1" style="fill:#ac3232;" width="1" x="20" y="127"></rect> </g> <g transform="matrix(1,0,0,1,0,-95)"> <rect height="1" style="fill:#ac3232;" width="1" x="19" y="127"></rect> </g> <g transform="matrix(1,0,0,1,0,-95)"> <rect height="1" style="fill:#ac3232;" width="1" x="18" y="127"></rect> </g> <g transform="matrix(1,0,0,1,0,-95)"> <rect height="1" style="fill:#ac3232;" width="1" x="17" y="127"></rect> </g> <g transform="matrix(1,0,0,1,0,-95)"> <rect height="1" style="fill:#ac3232;" width="1" x="16" y="127"></rect> </g> <g transform="matrix(1,0,0,1,0,-95)"> <rect height="1" style="fill:#ac3232;" width="1" x="15" y="127"></rect> </g> <g transform="matrix(1,0,0,1,0,-95)"> <rect height="1" width="1" x="14" y="127"></rect> </g> <g transform="matrix(1,0,0,1,0,-95)"> <rect height="1" style="fill:#ac3232;" width="1.001" x="13" y="127"></rect> </g> <g transform="matrix(1,0,0,1,0,-95)"> <rect height="1" width="1" x="12" y="127"></rect> </g> <g transform="matrix(1,0,0,1,0,-95)"> <rect height="1" style="fill:#cbdbfc;" width="1" x="11" y="127"></rect> </g> <g transform="matrix(1,0,0,1,0,-95)"> <rect height="1" style="fill:#cbdbfc;" width="1" x="10" y="127"></rect> </g> <g transform="matrix(1,0,0,1,0,-95)"> <rect height="1" style="fill:#5b6ee1;" width="1" x="9" y="127"></rect> </g> <g transform="matrix(1,0,0,1,0,-95)"> <rect height="1" width="1" x="8" y="127"></rect> </g> <g transform="matrix(1,0,0,1,0,-97)"> <rect height="1" width="1" x="29" y="128"></rect> </g> <g transform="matrix(1,0,0,1,0,-97)"> <rect height="1" style="fill:#5b6ee1;" width="1" x="28" y="128"></rect> </g> <g transform="matrix(1,0,0,1,0,-97)"> <rect height="1" style="fill:#cbdbfc;" width="1" x="27" y="128"></rect> </g> <g transform="matrix(1,0,0,1,0,-97)"> <rect height="1" style="fill:#cbdbfc;" width="1" x="26" y="128"></rect> </g> <g transform="matrix(1,0,0,1,0,-97)"> <rect height="1" width="1" x="25" y="128"></rect> </g> <g transform="matrix(1,0,0,1,0,-97)"> <rect height="1" style="fill:white;" width="1" x="24" y="128"></rect> </g> <g transform="matrix(1,0,0,1,0,-97)"> <rect height="1" width="1" x="23" y="128"></rect> </g> <g transform="matrix(1,0,0,1,0,-97)"> <rect height="1" style="fill:#ac3232;" width="1.001" x="22" y="128"></rect> </g> <g transform="matrix(1,0,0,1,0,-97)"> <rect height="1" style="fill:#ac3232;" width="1" x="21" y="128"></rect> </g> <g transform="matrix(1,0,0,1,0,-97)"> <rect height="1" style="fill:#ac3232;" width="1" x="20" y="128"></rect> </g> <g transform="matrix(1,0,0,1,0,-97)"> <rect height="1" style="fill:#ac3232;" width="1" x="19" y="128"></rect> </g> <g transform="matrix(1,0,0,1,0,-97)"> <rect height="1" style="fill:#ac3232;" width="1" x="18" y="128"></rect> </g> <g transform="matrix(1,0,0,1,0,-97)"> <rect height="1" style="fill:#ac3232;" width="1" x="17" y="128"></rect> </g> <g transform="matrix(1,0,0,1,0,-97)"> <rect height="1" style="fill:#ac3232;" width="1" x="16" y="128"></rect> </g> <g transform="matrix(1,0,0,1,0,-97)"> <rect height="1" width="1" x="15" y="128"></rect> </g> <g transform="matrix(1,0,0,1,0,-97)"> <rect height="1" style="fill:white;" width="1" x="14" y="128"></rect> </g> <g transform="matrix(1,0,0,1,0,-97)"> <rect height="1" width="1.001" x="13" y="128"></rect> </g> <g transform="matrix(1,0,0,1,0,-97)"> <rect height="1" style="fill:#cbdbfc;" width="1" x="12" y="128"></rect> </g> <g transform="matrix(1,0,0,1,0,-97)"> <rect height="1" style="fill:#cbdbfc;" width="1" x="11" y="128"></rect> </g> <g transform="matrix(1,0,0,1,0,-97)"> <rect height="1" style="fill:#5b6ee1;" width="1" x="10" y="128"></rect> </g> <g transform="matrix(1,0,0,1,0,-97)"> <rect height="1" width="1" x="9" y="128"></rect> </g> <g transform="matrix(1,0,0,1,0,-99)"> <rect height="1" width="1" x="29" y="129"></rect> </g> <g transform="matrix(1,0,0,1,0,-99)"> <rect height="1" style="fill:#5b6ee1;" width="1" x="28" y="129"></rect> </g> <g transform="matrix(1,0,0,1,0,-99)"> <rect height="1" style="fill:#cbdbfc;" width="1" x="27" y="129"></rect> </g> <g transform="matrix(1,0,0,1,0,-99)"> <rect height="1" style="fill:#cbdbfc;" width="1" x="26" y="129"></rect> </g> <g transform="matrix(1,0,0,1,0,-99)"> <rect height="1" width="1" x="25" y="129"></rect> </g> <g transform="matrix(1,0,0,1,0,-99)"> <rect height="1" style="fill:white;" width="1" x="24" y="129"></rect> </g> <g transform="matrix(1,0,0,1,0,-99)"> <rect height="1" width="1" x="23" y="129"></rect> </g> <g transform="matrix(1,0,0,1,0,-99)"> <rect height="1" style="fill:#ac3232;" width="1.001" x="22" y="129"></rect> </g> <g transform="matrix(1,0,0,1,0,-99)"> <rect height="1" style="fill:#ac3232;" width="1" x="21" y="129"></rect> </g> <g transform="matrix(1,0,0,1,0,-99)"> <rect height="1" style="fill:#ac3232;" width="1" x="20" y="129"></rect> </g> <g transform="matrix(1,0,0,1,0,-99)"> <rect height="1" style="fill:#ac3232;" width="1" x="19" y="129"></rect> </g> <g transform="matrix(1,0,0,1,0,-99)"> <rect height="1" style="fill:#ac3232;" width="1" x="18" y="129"></rect> </g> <g transform="matrix(1,0,0,1,0,-99)"> <rect height="1" style="fill:#ac3232;" width="1" x="17" y="129"></rect> </g> <g transform="matrix(1,0,0,1,0,-99)"> <rect height="1" style="fill:#ac3232;" width="1" x="16" y="129"></rect> </g> <g transform="matrix(1,0,0,1,0,-99)"> <rect height="1" width="1" x="15" y="129"></rect> </g> <g transform="matrix(1,0,0,1,0,-99)"> <rect height="1" style="fill:white;" width="1" x="14" y="129"></rect> </g> <g transform="matrix(1,0,0,1,0,-99)"> <rect height="1" width="1.001" x="13" y="129"></rect> </g> <g transform="matrix(1,0,0,1,0,-99)"> <rect height="1" style="fill:#cbdbfc;" width="1" x="12" y="129"></rect> </g> <g transform="matrix(1,0,0,1,0,-99)"> <rect height="1" style="fill:#cbdbfc;" width="1" x="11" y="129"></rect> </g> <g transform="matrix(1,0,0,1,0,-99)"> <rect height="1" style="fill:#5b6ee1;" width="1" x="10" y="129"></rect> </g> <g transform="matrix(1,0,0,1,0,-99)"> <rect height="1" width="1" x="9" y="129"></rect> </g> <g transform="matrix(1,0,0,1,0,-101.001)"> <rect height="1.001" width="1" x="29" y="130"></rect> </g> <g transform="matrix(1,0,0,1,0,-101.001)"> <rect height="1.001" style="fill:#5b6ee1;" width="1" x="28" y="130"></rect> </g> <g transform="matrix(1,0,0,1,0,-101.001)"> <rect height="1.001" style="fill:#cbdbfc;" width="1" x="27" y="130"></rect> </g> <g transform="matrix(1,0,0,1,0,-101.001)"> <rect height="1.001" style="fill:#cbdbfc;" width="1" x="26" y="130"></rect> </g> <g transform="matrix(1,0,0,1,0,-101.001)"> <rect height="1.001" width="1" x="25" y="130"></rect> </g> <g transform="matrix(1,0,0,1,0,-101.001)"> <rect height="1.001" style="fill:white;" width="1" x="24" y="130"></rect> </g> <g transform="matrix(1,0,0,1,0,-101.001)"> <rect height="1.001" style="fill:white;" width="1" x="23" y="130"></rect> </g> <g transform="matrix(1,0,0,1,0,-101.001)"> <rect height="1.001" width="1.001" x="22" y="130"></rect> </g> <g transform="matrix(1,0,0,1,0,-101.001)"> <rect height="1.001" style="fill:#ac3232;" width="1" x="21" y="130"></rect> </g> <g transform="matrix(1,0,0,1,0,-101.001)"> <rect height="1.001" style="fill:#ac3232;" width="1" x="20" y="130"></rect> </g> <g transform="matrix(1,0,0,1,0,-101.001)"> <rect height="1.001" style="fill:#ac3232;" width="1" x="19" y="130"></rect> </g> <g transform="matrix(1,0,0,1,0,-101.001)"> <rect height="1.001" style="fill:#ac3232;" width="1" x="18" y="130"></rect> </g> <g transform="matrix(1,0,0,1,0,-101.001)"> <rect height="1.001" style="fill:#ac3232;" width="1" x="17" y="130"></rect> </g> <g transform="matrix(1,0,0,1,0,-101.001)"> <rect height="1.001" width="1" x="16" y="130"></rect> </g> <g transform="matrix(1,0,0,1,0,-101.001)"> <rect height="1.001" style="fill:white;" width="1" x="15" y="130"></rect> </g> <g transform="matrix(1,0,0,1,0,-101.001)"> <rect height="1.001" style="fill:white;" width="1" x="14" y="130"></rect> </g> <g transform="matrix(1,0,0,1,0,-101.001)"> <rect height="1.001" width="1.001" x="13" y="130"></rect> </g> <g transform="matrix(1,0,0,1,0,-101.001)"> <rect height="1.001" style="fill:#cbdbfc;" width="1" x="12" y="130"></rect> </g> <g transform="matrix(1,0,0,1,0,-101.001)"> <rect height="1.001" style="fill:#cbdbfc;" width="1" x="11" y="130"></rect> </g> <g transform="matrix(1,0,0,1,0,-101.001)"> <rect height="1.001" style="fill:#5b6ee1;" width="1" x="10" y="130"></rect> </g> <g transform="matrix(1,0,0,1,0,-101.001)"> <rect height="1.001" width="1" x="9" y="130"></rect> </g> <g transform="matrix(1,0,0,1,0,-103)"> <rect height="1" width="1" x="29" y="131"></rect> </g> <g transform="matrix(1,0,0,1,0,-103)"> <rect height="1" style="fill:#5b6ee1;" width="1" x="28" y="131"></rect> </g> <g transform="matrix(1,0,0,1,0,-103)"> <rect height="1" style="fill:#cbdbfc;" width="1" x="27" y="131"></rect> </g> <g transform="matrix(1,0,0,1,0,-103)"> <rect height="1" style="fill:#cbdbfc;" width="1" x="26" y="131"></rect> </g> <g transform="matrix(1,0,0,1,0,-103)"> <rect height="1" style="fill:#cbdbfc;" width="1" x="25" y="131"></rect> </g> <g transform="matrix(1,0,0,1,0,-103)"> <rect height="1" width="1" x="24" y="131"></rect> </g> <g transform="matrix(1,0,0,1,0,-103)"> <rect height="1" style="fill:white;" width="1" x="23" y="131"></rect> </g> <g transform="matrix(1,0,0,1,0,-103)"> <rect height="1" width="1.001" x="22" y="131"></rect> </g> <g transform="matrix(1,0,0,1,0,-103)"> <rect height="1" style="fill:#ac3232;" width="1" x="21" y="131"></rect> </g> <g transform="matrix(1,0,0,1,0,-103)"> <rect height="1" style="fill:#ac3232;" width="1" x="20" y="131"></rect> </g> <g transform="matrix(1,0,0,1,0,-103)"> <rect height="1" style="fill:#ac3232;" width="1" x="19" y="131"></rect> </g> <g transform="matrix(1,0,0,1,0,-103)"> <rect height="1" style="fill:#ac3232;" width="1" x="18" y="131"></rect> </g> <g transform="matrix(1,0,0,1,0,-103)"> <rect height="1" style="fill:#ac3232;" width="1" x="17" y="131"></rect> </g> <g transform="matrix(1,0,0,1,0,-103)"> <rect height="1" width="1" x="16" y="131"></rect> </g> <g transform="matrix(1,0,0,1,0,-103)"> <rect height="1" style="fill:white;" width="1" x="15" y="131"></rect> </g> <g transform="matrix(1,0,0,1,0,-103)"> <rect height="1" width="1" x="14" y="131"></rect> </g> <g transform="matrix(1,0,0,1,0,-103)"> <rect height="1" style="fill:#cbdbfc;" width="1.001" x="13" y="131"></rect> </g> <g transform="matrix(1,0,0,1,0,-103)"> <rect height="1" style="fill:#cbdbfc;" width="1" x="12" y="131"></rect> </g> <g transform="matrix(1,0,0,1,0,-103)"> <rect height="1" style="fill:#cbdbfc;" width="1" x="11" y="131"></rect> </g> <g transform="matrix(1,0,0,1,0,-103)"> <rect height="1" style="fill:#5b6ee1;" width="1" x="10" y="131"></rect> </g> <g transform="matrix(1,0,0,1,0,-103)"> <rect height="1" width="1" x="9" y="131"></rect> </g> <g transform="matrix(1,0,0,1,0,-105)"> <rect height="1" width="1" x="28" y="132"></rect> </g> <g transform="matrix(1,0,0,1,0,-105)"> <rect height="1" style="fill:#5b6ee1;" width="1" x="27" y="132"></rect> </g> <g transform="matrix(1,0,0,1,0,-105)"> <rect height="1" style="fill:#cbdbfc;" width="1" x="26" y="132"></rect> </g> <g transform="matrix(1,0,0,1,0,-105)"> <rect height="1" style="fill:#cbdbfc;" width="1" x="25" y="132"></rect> </g> <g transform="matrix(1,0,0,1,0,-105)"> <rect height="1" width="1" x="24" y="132"></rect> </g> <g transform="matrix(1,0,0,1,0,-105)"> <rect height="1" style="fill:white;" width="1" x="23" y="132"></rect> </g> <g transform="matrix(1,0,0,1,0,-105)"> <rect height="1" style="fill:white;" width="1.001" x="22" y="132"></rect> </g> <g transform="matrix(1,0,0,1,0,-105)"> <rect height="1" width="1" x="21" y="132"></rect> </g> <g transform="matrix(1,0,0,1,0,-105)"> <rect height="1" style="fill:#ac3232;" width="1" x="20" y="132"></rect> </g> <g transform="matrix(1,0,0,1,0,-105)"> <rect height="1" style="fill:#ac3232;" width="1" x="19" y="132"></rect> </g> <g transform="matrix(1,0,0,1,0,-105)"> <rect height="1" style="fill:#ac3232;" width="1" x="18" y="132"></rect> </g> <g transform="matrix(1,0,0,1,0,-105)"> <rect height="1" width="1" x="17" y="132"></rect> </g> <g transform="matrix(1,0,0,1,0,-105)"> <rect height="1" style="fill:white;" width="1" x="16" y="132"></rect> </g> <g transform="matrix(1,0,0,1,0,-105)"> <rect height="1" style="fill:white;" width="1" x="15" y="132"></rect> </g> <g transform="matrix(1,0,0,1,0,-105)"> <rect height="1" width="1" x="14" y="132"></rect> </g> <g transform="matrix(1,0,0,1,0,-105)"> <rect height="1" style="fill:#cbdbfc;" width="1.001" x="13" y="132"></rect> </g> <g transform="matrix(1,0,0,1,0,-105)"> <rect height="1" style="fill:#cbdbfc;" width="1" x="12" y="132"></rect> </g> <g transform="matrix(1,0,0,1,0,-105)"> <rect height="1" style="fill:#5b6ee1;" width="1" x="11" y="132"></rect> </g> <g transform="matrix(1,0,0,1,0,-105)"> <rect height="1" width="1" x="10" y="132"></rect> </g> <g transform="matrix(1,0,0,1,0,-107)"> <rect height="1" width="1" x="28" y="133"></rect> </g> <g transform="matrix(1,0,0,1,0,-107)"> <rect height="1" style="fill:#5b6ee1;" width="1" x="27" y="133"></rect> </g> <g transform="matrix(1,0,0,1,0,-107)"> <rect height="1" style="fill:#cbdbfc;" width="1" x="26" y="133"></rect> </g> <g transform="matrix(1,0,0,1,0,-107)"> <rect height="1" style="fill:#cbdbfc;" width="1" x="25" y="133"></rect> </g> <g transform="matrix(1,0,0,1,0,-107)"> <rect height="1" style="fill:#cbdbfc;" width="1" x="24" y="133"></rect> </g> <g transform="matrix(1,0,0,1,0,-107)"> <rect height="1" width="1" x="23" y="133"></rect> </g> <g transform="matrix(1,0,0,1,0,-107)"> <rect height="1" style="fill:white;" width="1.001" x="22" y="133"></rect> </g> <g transform="matrix(1,0,0,1,0,-107)"> <rect height="1" style="fill:white;" width="1" x="21" y="133"></rect> </g> <g transform="matrix(1,0,0,1,0,-107)"> <rect height="1" width="1" x="20" y="133"></rect> </g> <g transform="matrix(1,0,0,1,0,-107)"> <rect height="1" width="1" x="19" y="133"></rect> </g> <g transform="matrix(1,0,0,1,0,-107)"> <rect height="1" width="1" x="18" y="133"></rect> </g> <g transform="matrix(1,0,0,1,0,-107)"> <rect height="1" style="fill:white;" width="1" x="17" y="133"></rect> </g> <g transform="matrix(1,0,0,1,0,-107)"> <rect height="1" style="fill:white;" width="1" x="16" y="133"></rect> </g> <g transform="matrix(1,0,0,1,0,-107)"> <rect height="1" width="1" x="15" y="133"></rect> </g> <g transform="matrix(1,0,0,1,0,-107)"> <rect height="1" style="fill:#cbdbfc;" width="1" x="14" y="133"></rect> </g> <g transform="matrix(1,0,0,1,0,-107)"> <rect height="1" style="fill:#cbdbfc;" width="1.001" x="13" y="133"></rect> </g> <g transform="matrix(1,0,0,1,0,-107)"> <rect height="1" style="fill:#cbdbfc;" width="1" x="12" y="133"></rect> </g> <g transform="matrix(1,0,0,1,0,-107)"> <rect height="1" style="fill:#5b6ee1;" width="1" x="11" y="133"></rect> </g> <g transform="matrix(1,0,0,1,0,-107)"> <rect height="1" width="1" x="10" y="133"></rect> </g> <g transform="matrix(1,0,0,1,0,-109)"> <rect height="1" width="1" x="27" y="134"></rect> </g> <g transform="matrix(1,0,0,1,0,-109)"> <rect height="1" style="fill:#5b6ee1;" width="1" x="26" y="134"></rect> </g> <g transform="matrix(1,0,0,1,0,-109)"> <rect height="1" style="fill:#cbdbfc;" width="1" x="25" y="134"></rect> </g> <g transform="matrix(1,0,0,1,0,-109)"> <rect height="1" style="fill:#cbdbfc;" width="1" x="24" y="134"></rect> </g> <g transform="matrix(1,0,0,1,0,-109)"> <rect height="1" style="fill:#cbdbfc;" width="1" x="23" y="134"></rect> </g> <g transform="matrix(1,0,0,1,0,-109)"> <rect height="1" width="1.001" x="22" y="134"></rect> </g> <g transform="matrix(1,0,0,1,0,-109)"> <rect height="1" style="fill:white;" width="1" x="21" y="134"></rect> </g> <g transform="matrix(1,0,0,1,0,-109)"> <rect height="1" style="fill:white;" width="1" x="20" y="134"></rect> </g> <g transform="matrix(1,0,0,1,0,-109)"> <rect height="1" style="fill:white;" width="1" x="19" y="134"></rect> </g> <g transform="matrix(1,0,0,1,0,-109)"> <rect height="1" style="fill:white;" width="1" x="18" y="134"></rect> </g> <g transform="matrix(1,0,0,1,0,-109)"> <rect height="1" style="fill:white;" width="1" x="17" y="134"></rect> </g> <g transform="matrix(1,0,0,1,0,-109)"> <rect height="1" width="1" x="16" y="134"></rect> </g> <g transform="matrix(1,0,0,1,0,-109)"> <rect height="1" style="fill:#cbdbfc;" width="1" x="15" y="134"></rect> </g> <g transform="matrix(1,0,0,1,0,-109)"> <rect height="1" style="fill:#cbdbfc;" width="1" x="14" y="134"></rect> </g> <g transform="matrix(1,0,0,1,0,-109)"> <rect height="1" style="fill:#cbdbfc;" width="1.001" x="13" y="134"></rect> </g> <g transform="matrix(1,0,0,1,0,-109)"> <rect height="1" style="fill:#5b6ee1;" width="1" x="12" y="134"></rect> </g> <g transform="matrix(1,0,0,1,0,-109)"> <rect height="1" width="1" x="11" y="134"></rect> </g> <g transform="matrix(1,0,0,1,0,-111)"> <rect height="1" width="1" x="27" y="135"></rect> </g> <g transform="matrix(1,0,0,1,0,-111)"> <rect height="1" style="fill:#5b6ee1;" width="1" x="26" y="135"></rect> </g> <g transform="matrix(1,0,0,1,0,-111)"> <rect height="1" style="fill:#5b6ee1;" width="1" x="25" y="135"></rect> </g> <g transform="matrix(1,0,0,1,0,-111)"> <rect height="1" style="fill:#cbdbfc;" width="1" x="24" y="135"></rect> </g> <g transform="matrix(1,0,0,1,0,-111)"> <rect height="1" style="fill:#cbdbfc;" width="1" x="23" y="135"></rect> </g> <g transform="matrix(1,0,0,1,0,-111)"> <rect height="1" style="fill:#cbdbfc;" width="1.001" x="22" y="135"></rect> </g> <g transform="matrix(1,0,0,1,0,-111)"> <rect height="1" width="1" x="21" y="135"></rect> </g> <g transform="matrix(1,0,0,1,0,-111)"> <rect height="1" style="fill:white;" width="1" x="20" y="135"></rect> </g> <g transform="matrix(1,0,0,1,0,-111)"> <rect height="1" style="fill:white;" width="1" x="19" y="135"></rect> </g> <g transform="matrix(1,0,0,1,0,-111)"> <rect height="1" style="fill:white;" width="1" x="18" y="135"></rect> </g> <g transform="matrix(1,0,0,1,0,-111)"> <rect height="1" width="1" x="17" y="135"></rect> </g> <g transform="matrix(1,0,0,1,0,-111)"> <rect height="1" style="fill:#cbdbfc;" width="1" x="16" y="135"></rect> </g> <g transform="matrix(1,0,0,1,0,-111)"> <rect height="1" style="fill:#cbdbfc;" width="1" x="15" y="135"></rect> </g> <g transform="matrix(1,0,0,1,0,-111)"> <rect height="1" style="fill:#cbdbfc;" width="1" x="14" y="135"></rect> </g> <g transform="matrix(1,0,0,1,0,-111)"> <rect height="1" style="fill:#5b6ee1;" width="1.001" x="13" y="135"></rect> </g> <g transform="matrix(1,0,0,1,0,-111)"> <rect height="1" style="fill:#5b6ee1;" width="1" x="12" y="135"></rect> </g> <g transform="matrix(1,0,0,1,0,-111)"> <rect height="1" width="1" x="11" y="135"></rect> </g> <g transform="matrix(1,0,0,1,0,-113)"> <rect height="1" width="1" x="26" y="136"></rect> </g> <g transform="matrix(1,0,0,1,0,-113)"> <rect height="1" style="fill:#5b6ee1;" width="1" x="25" y="136"></rect> </g> <g transform="matrix(1,0,0,1,0,-113)"> <rect height="1" style="fill:#cbdbfc;" width="1" x="24" y="136"></rect> </g> <g transform="matrix(1,0,0,1,0,-113)"> <rect height="1" style="fill:#cbdbfc;" width="1" x="23" y="136"></rect> </g> <g transform="matrix(1,0,0,1,0,-113)"> <rect height="1" style="fill:#cbdbfc;" width="1.001" x="22" y="136"></rect> </g> <g transform="matrix(1,0,0,1,0,-113)"> <rect height="1" style="fill:#cbdbfc;" width="1" x="21" y="136"></rect> </g> <g transform="matrix(1,0,0,1,0,-113)"> <rect height="1" width="1" x="20" y="136"></rect> </g> <g transform="matrix(1,0,0,1,0,-113)"> <rect height="1" width="1" x="19" y="136"></rect> </g> <g transform="matrix(1,0,0,1,0,-113)"> <rect height="1" width="1" x="18" y="136"></rect> </g> <g transform="matrix(1,0,0,1,0,-113)"> <rect height="1" style="fill:#cbdbfc;" width="1" x="17" y="136"></rect> </g> <g transform="matrix(1,0,0,1,0,-113)"> <rect height="1" style="fill:#cbdbfc;" width="1" x="16" y="136"></rect> </g> <g transform="matrix(1,0,0,1,0,-113)"> <rect height="1" style="fill:#cbdbfc;" width="1" x="15" y="136"></rect> </g> <g transform="matrix(1,0,0,1,0,-113)"> <rect height="1" style="fill:#cbdbfc;" width="1" x="14" y="136"></rect> </g> <g transform="matrix(1,0,0,1,0,-113)"> <rect height="1" style="fill:#5b6ee1;" width="1.001" x="13" y="136"></rect> </g> <g transform="matrix(1,0,0,1,0,-113)"> <rect height="1" width="1" x="12" y="136"></rect> </g> <g transform="matrix(1,0,0,1,0,-115)"> <rect height="1" width="1" x="25" y="137"></rect> </g> <g transform="matrix(1,0,0,1,0,-115)"> <rect height="1" style="fill:#5b6ee1;" width="1" x="24" y="137"></rect> </g> <g transform="matrix(1,0,0,1,0,-115)"> <rect height="1" style="fill:#cbdbfc;" width="1" x="23" y="137"></rect> </g> <g transform="matrix(1,0,0,1,0,-115)"> <rect height="1" style="fill:#cbdbfc;" width="1.001" x="22" y="137"></rect> </g> <g transform="matrix(1,0,0,1,0,-115)"> <rect height="1" style="fill:#cbdbfc;" width="1" x="21" y="137"></rect> </g> <g transform="matrix(1,0,0,1,0,-115)"> <rect height="1" style="fill:#cbdbfc;" width="1" x="20" y="137"></rect> </g> <g transform="matrix(1,0,0,1,0,-115)"> <rect height="1" style="fill:#cbdbfc;" width="1" x="19" y="137"></rect> </g> <g transform="matrix(1,0,0,1,0,-115)"> <rect height="1" style="fill:#cbdbfc;" width="1" x="18" y="137"></rect> </g> <g transform="matrix(1,0,0,1,0,-115)"> <rect height="1" style="fill:#cbdbfc;" width="1" x="17" y="137"></rect> </g> <g transform="matrix(1,0,0,1,0,-115)"> <rect height="1" style="fill:#cbdbfc;" width="1" x="16" y="137"></rect> </g> <g transform="matrix(1,0,0,1,0,-115)"> <rect height="1" style="fill:#cbdbfc;" width="1" x="15" y="137"></rect> </g> <g transform="matrix(1,0,0,1,0,-115)"> <rect height="1" style="fill:#5b6ee1;" width="1" x="14" y="137"></rect> </g> <g transform="matrix(1,0,0,1,0,-115)"> <rect height="1" width="1.001" x="13" y="137"></rect> </g> <g transform="matrix(1,0,0,1,0,-117)"> <rect height="1" width="1" x="25" y="138"></rect> </g> <g transform="matrix(1,0,0,1,0,-117)"> <rect height="1" style="fill:#5b6ee1;" width="1" x="24" y="138"></rect> </g> <g transform="matrix(1,0,0,1,0,-117)"> <rect height="1" style="fill:#cbdbfc;" width="1" x="23" y="138"></rect> </g> <g transform="matrix(1,0,0,1,0,-117)"> <rect height="1" style="fill:#cbdbfc;" width="1.001" x="22" y="138"></rect> </g> <g transform="matrix(1,0,0,1,0,-117)"> <rect height="1" style="fill:#cbdbfc;" width="1" x="21" y="138"></rect> </g> <g transform="matrix(1,0,0,1,0,-117)"> <rect height="1" style="fill:#cbdbfc;" width="1" x="20" y="138"></rect> </g> <g transform="matrix(1,0,0,1,0,-117)"> <rect height="1" style="fill:#cbdbfc;" width="1" x="19" y="138"></rect> </g> <g transform="matrix(1,0,0,1,0,-117)"> <rect height="1" style="fill:#cbdbfc;" width="1" x="18" y="138"></rect> </g> <g transform="matrix(1,0,0,1,0,-117)"> <rect height="1" style="fill:#cbdbfc;" width="1" x="17" y="138"></rect> </g> <g transform="matrix(1,0,0,1,0,-117)"> <rect height="1" style="fill:#cbdbfc;" width="1" x="16" y="138"></rect> </g> <g transform="matrix(1,0,0,1,0,-117)"> <rect height="1" style="fill:#cbdbfc;" width="1" x="15" y="138"></rect> </g> <g transform="matrix(1,0,0,1,0,-117)"> <rect height="1" style="fill:#5b6ee1;" width="1" x="14" y="138"></rect> </g> <g transform="matrix(1,0,0,1,0,-117)"> <rect height="1" width="1.001" x="13" y="138"></rect> </g> <g transform="matrix(1,0,0,1,0,-119.001)"> <rect height="1.001" width="1" x="24" y="139"></rect> </g> <g transform="matrix(1,0,0,1,0,-119.001)"> <rect height="1.001" style="fill:#5b6ee1;" width="1" x="23" y="139"></rect> </g> <g transform="matrix(1,0,0,1,0,-119.001)"> <rect height="1.001" style="fill:#5b6ee1;" width="1.001" x="22" y="139"></rect> </g> <g transform="matrix(1,0,0,1,0,-119.001)"> <rect height="1.001" style="fill:#cbdbfc;" width="1" x="21" y="139"></rect> </g> <g transform="matrix(1,0,0,1,0,-119.001)"> <rect height="1.001" style="fill:#cbdbfc;" width="1" x="20" y="139"></rect> </g> <g transform="matrix(1,0,0,1,0,-119.001)"> <rect height="1.001" style="fill:#cbdbfc;" width="1" x="19" y="139"></rect> </g> <g transform="matrix(1,0,0,1,0,-119.001)"> <rect height="1.001" style="fill:#cbdbfc;" width="1" x="18" y="139"></rect> </g> <g transform="matrix(1,0,0,1,0,-119.001)"> <rect height="1.001" style="fill:#cbdbfc;" width="1" x="17" y="139"></rect> </g> <g transform="matrix(1,0,0,1,0,-119.001)"> <rect height="1.001" style="fill:#5b6ee1;" width="1" x="16" y="139"></rect> </g> <g transform="matrix(1,0,0,1,0,-119.001)"> <rect height="1.001" style="fill:#5b6ee1;" width="1" x="15" y="139"></rect> </g> <g transform="matrix(1,0,0,1,0,-119.001)"> <rect height="1.001" width="1" x="14" y="139"></rect> </g> <g transform="matrix(1,0,0,1,0,-121)"> <rect height="1" width="1" x="23" y="140"></rect> </g> <g transform="matrix(1,0,0,1,0,-121)"> <rect height="1" width="1.001" x="22" y="140"></rect> </g> <g transform="matrix(1,0,0,1,0,-121)"> <rect height="1" style="fill:#5b6ee1;" width="1" x="21" y="140"></rect> </g> <g transform="matrix(1,0,0,1,0,-121)"> <rect height="1" style="fill:#cbdbfc;" width="1" x="20" y="140"></rect> </g> <g transform="matrix(1,0,0,1,0,-121)"> <rect height="1" style="fill:#cbdbfc;" width="1" x="19" y="140"></rect> </g> <g transform="matrix(1,0,0,1,0,-121)"> <rect height="1" style="fill:#cbdbfc;" width="1" x="18" y="140"></rect> </g> <g transform="matrix(1,0,0,1,0,-121)"> <rect height="1" style="fill:#5b6ee1;" width="1" x="17" y="140"></rect> </g> <g transform="matrix(1,0,0,1,0,-121)"> <rect height="1" width="1" x="16" y="140"></rect> </g> <g transform="matrix(1,0,0,1,0,-121)"> <rect height="1" width="1" x="15" y="140"></rect> </g> <g transform="matrix(1,0,0,1,0,-123)"> <rect height="1" width="1" x="21" y="141"></rect> </g> <g transform="matrix(1,0,0,1,0,-123)"> <rect height="1" style="fill:#5b6ee1;" width="1" x="20" y="141"></rect> </g> <g transform="matrix(1,0,0,1,0,-123)"> <rect height="1" style="fill:#5b6ee1;" width="1" x="19" y="141"></rect> </g> <g transform="matrix(1,0,0,1,0,-123)"> <rect height="1" style="fill:#5b6ee1;" width="1" x="18" y="141"></rect> </g> <g transform="matrix(1,0,0,1,0,-123)"> <rect height="1" width="1" x="17" y="141"></rect> </g> <g transform="matrix(1,0,0,1,0,-125)"> <rect height="1" width="1" x="20" y="142"></rect> </g> <g transform="matrix(1,0,0,1,0,-125)"> <rect height="1" width="1" x="19" y="142"></rect> </g> <g transform="matrix(1,0,0,1,0,-125)"> <rect height="1" width="1" x="18" y="142"></rect> </g> <g transform="matrix(1,0,0,1,0,-129)"> <rect height="1" width="1" x="21" y="144"></rect> </g> <g transform="matrix(1,0,0,1,0,-129)"> <rect height="1" width="1" x="20" y="144"></rect> </g> <g transform="matrix(1,0,0,1,0,-129)"> <rect height="1" width="1" x="19" y="144"></rect> </g> <g transform="matrix(1,0,0,1,0,-129)"> <rect height="1" width="1" x="18" y="144"></rect> </g> <g transform="matrix(1,0,0,1,0,-129)"> <rect height="1" width="1" x="17" y="144"></rect> </g> <g transform="matrix(1,0,0,1,0,-131)"> <rect height="1" width="1.001" x="22" y="145"></rect> </g> <g transform="matrix(1,0,0,1,0,-131)"> <rect height="1" style="fill:#595652;" width="1" x="21" y="145"></rect> </g> <g transform="matrix(1,0,0,1,0,-131)"> <rect height="1" style="fill:#696a6a;" width="1" x="20" y="145"></rect> </g> <g transform="matrix(1,0,0,1,0,-131)"> <rect height="1" style="fill:#696a6a;" width="1" x="19" y="145"></rect> </g> <g transform="matrix(1,0,0,1,0,-131)"> <rect height="1" style="fill:white;" width="1" x="18" y="145"></rect> </g> <g transform="matrix(1,0,0,1,0,-131)"> <rect height="1" style="fill:#595652;" width="1" x="17" y="145"></rect> </g> <g transform="matrix(1,0,0,1,0,-131)"> <rect height="1" width="1" x="16" y="145"></rect> </g> <g transform="matrix(1,0,0,1,0,-133)"> <rect height="1" width="1" x="23" y="146"></rect> </g> <g transform="matrix(1,0,0,1,0,-133)"> <rect height="1" style="fill:#696a6a;" width="1.001" x="22" y="146"></rect> </g> <g transform="matrix(1,0,0,1,0,-133)"> <rect height="1" style="fill:#595652;" width="1" x="21" y="146"></rect> </g> <g transform="matrix(1,0,0,1,0,-133)"> <rect height="1" width="1" x="20" y="146"></rect> </g> <g transform="matrix(1,0,0,1,0,-133)"> <rect height="1" width="1" x="19" y="146"></rect> </g> <g transform="matrix(1,0,0,1,0,-133)"> <rect height="1" width="1" x="18" y="146"></rect> </g> <g transform="matrix(1,0,0,1,0,-133)"> <rect height="1" style="fill:#595652;" width="1" x="17" y="146"></rect> </g> <g transform="matrix(1,0,0,1,0,-133)"> <rect height="1" style="fill:#696a6a;" width="1" x="16" y="146"></rect> </g> <g transform="matrix(1,0,0,1,0,-133)"> <rect height="1" width="1" x="15" y="146"></rect> </g> <g transform="matrix(1,0,0,1,0,-135)"> <rect height="1" width="1" x="23" y="147"></rect> </g> <g transform="matrix(1,0,0,1,0,-135)"> <rect height="1" style="fill:#696a6a;" width="1.001" x="22" y="147"></rect> </g> <g transform="matrix(1,0,0,1,0,-135)"> <rect height="1" width="1" x="21" y="147"></rect> </g> <g transform="matrix(1,0,0,1,0,-135)"> <rect height="1" style="fill:#ac3232;" width="1" x="20" y="147"></rect> </g> <g transform="matrix(1,0,0,1,0,-135)"> <rect height="1" style="fill:#ac3232;" width="1" x="19" y="147"></rect> </g> <g transform="matrix(1,0,0,1,0,-135)"> <rect height="1" style="fill:#d95763;" width="1" x="18" y="147"></rect> </g> <g transform="matrix(1,0,0,1,0,-135)"> <rect height="1" width="1" x="17" y="147"></rect> </g> <g transform="matrix(1,0,0,1,0,-135)"> <rect height="1" style="fill:#696a6a;" width="1" x="16" y="147"></rect> </g> <g transform="matrix(1,0,0,1,0,-135)"> <rect height="1" width="1" x="15" y="147"></rect> </g> <g transform="matrix(1,0,0,1,0,-137.001)"> <rect height="1.001" width="1.001" x="22" y="148"></rect> </g> <g transform="matrix(1,0,0,1,0,-137.001)"> <rect height="1.001" style="fill:#d95763;" width="1" x="21" y="148"></rect> </g> <g transform="matrix(1,0,0,1,0,-137.001)"> <rect height="1.001" style="fill:#ac3232;" width="1" x="20" y="148"></rect> </g> <g transform="matrix(1,0,0,1,0,-137.001)"> <rect height="1.001" style="fill:#ac3232;" width="1" x="19" y="148"></rect> </g> <g transform="matrix(1,0,0,1,0,-137.001)"> <rect height="1.001" style="fill:#d95763;" width="1" x="18" y="148"></rect> </g> <g transform="matrix(1,0,0,1,0,-137.001)"> <rect height="1.001" style="fill:#ac3232;" width="1" x="17" y="148"></rect> </g> <g transform="matrix(1,0,0,1,0,-137.001)"> <rect height="1.001" width="1" x="16" y="148"></rect> </g> <g transform="matrix(1,0,0,1,0,-139)"> <rect height="1" width="1.001" x="22" y="149"></rect> </g> <g transform="matrix(1,0,0,1,0,-139)"> <rect height="1" style="fill:#d95763;" width="1" x="21" y="149"></rect> </g> <g transform="matrix(1,0,0,1,0,-139)"> <rect height="1" style="fill:#ac3232;" width="1" x="20" y="149"></rect> </g> <g transform="matrix(1,0,0,1,0,-139)"> <rect height="1" style="fill:#ac3232;" width="1" x="19" y="149"></rect> </g> <g transform="matrix(1,0,0,1,0,-139)"> <rect height="1" style="fill:#d95763;" width="1" x="18" y="149"></rect> </g> <g transform="matrix(1,0,0,1,0,-139)"> <rect height="1" style="fill:#ac3232;" width="1" x="17" y="149"></rect> </g> <g transform="matrix(1,0,0,1,0,-139)"> <rect height="1" width="1" x="16" y="149"></rect> </g> <g transform="matrix(1,0,0,1,0,-141)"> <rect height="1" width="1" x="26" y="150"></rect> </g> <g transform="matrix(1,0,0,1,0,-141)"> <rect height="1" width="1" x="25" y="150"></rect> </g> <g transform="matrix(1,0,0,1,0,-141)"> <rect height="1" width="1.001" x="22" y="150"></rect> </g> <g transform="matrix(1,0,0,1,0,-141)"> <rect height="1" style="fill:#d95763;" width="1" x="21" y="150"></rect> </g> <g transform="matrix(1,0,0,1,0,-141)"> <rect height="1" style="fill:#ac3232;" width="1" x="20" y="150"></rect> </g> <g transform="matrix(1,0,0,1,0,-141)"> <rect height="1" style="fill:#ac3232;" width="1" x="19" y="150"></rect> </g> <g transform="matrix(1,0,0,1,0,-141)"> <rect height="1" style="fill:#d95763;" width="1" x="18" y="150"></rect> </g> <g transform="matrix(1,0,0,1,0,-141)"> <rect height="1" style="fill:#ac3232;" width="1" x="17" y="150"></rect> </g> <g transform="matrix(1,0,0,1,0,-141)"> <rect height="1" width="1" x="16" y="150"></rect> </g> <g transform="matrix(1,0,0,1,0,-141)"> <rect height="1" width="1.001" x="13" y="150"></rect> </g> <g transform="matrix(1,0,0,1,0,-141)"> <rect height="1" width="1" x="12" y="150"></rect> </g> <g transform="matrix(1,0,0,1,0,-143)"> <rect height="1" width="1.001" x="22" y="151"></rect> </g> <g transform="matrix(1,0,0,1,0,-143)"> <rect height="1" style="fill:#d95763;" width="1" x="21" y="151"></rect> </g> <g transform="matrix(1,0,0,1,0,-143)"> <rect height="1" style="fill:#ac3232;" width="1" x="20" y="151"></rect> </g> <g transform="matrix(1,0,0,1,0,-143)"> <rect height="1" style="fill:#ac3232;" width="1" x="19" y="151"></rect> </g> <g transform="matrix(1,0,0,1,0,-143)"> <rect height="1" style="fill:white;" width="1" x="18" y="151"></rect> </g> <g transform="matrix(1,0,0,1,0,-143)"> <rect height="1" style="fill:#ac3232;" width="1" x="17" y="151"></rect> </g> <g transform="matrix(1,0,0,1,0,-143)"> <rect height="1" width="1" x="16" y="151"></rect> </g> <g transform="matrix(1,0,0,1,0,-145)"> <rect height="1" width="1.001" x="22" y="152"></rect> </g> <g transform="matrix(1,0,0,1,0,-145)"> <rect height="1" style="fill:#d95763;" width="1" x="21" y="152"></rect> </g> <g transform="matrix(1,0,0,1,0,-145)"> <rect height="1" style="fill:#d95763;" width="1" x="20" y="152"></rect> </g> <g transform="matrix(1,0,0,1,0,-145)"> <rect height="1" style="fill:white;" width="1" x="19" y="152"></rect> </g> <g transform="matrix(1,0,0,1,0,-145)"> <rect height="1" style="fill:#d95763;" width="1" x="18" y="152"></rect> </g> <g transform="matrix(1,0,0,1,0,-145)"> <rect height="1" style="fill:#d95763;" width="1" x="17" y="152"></rect> </g> <g transform="matrix(1,0,0,1,0,-145)"> <rect height="1" width="1" x="16" y="152"></rect> </g> <g transform="matrix(1,0,0,1,0,-147)"> <rect height="1" width="1" x="24" y="153"></rect> </g> <g transform="matrix(1,0,0,1,0,-147)"> <rect height="1" width="1" x="21" y="153"></rect> </g> <g transform="matrix(1,0,0,1,0,-147)"> <rect height="1" width="1" x="20" y="153"></rect> </g> <g transform="matrix(1,0,0,1,0,-147)"> <rect height="1" width="1" x="19" y="153"></rect> </g> <g transform="matrix(1,0,0,1,0,-147)"> <rect height="1" width="1" x="18" y="153"></rect> </g> <g transform="matrix(1,0,0,1,0,-147)"> <rect height="1" width="1" x="17" y="153"></rect> </g> <g transform="matrix(1,0,0,1,0,-147)"> <rect height="1" width="1" x="14" y="153"></rect> </g> <g transform="matrix(1,0,0,1,0,-149)"> <rect height="1" width="1" x="25" y="154"></rect> </g> <g transform="matrix(1,0,0,1,0,-149)"> <rect height="1" width="1.001" x="13" y="154"></rect> </g> <g transform="matrix(1,0,0,1,0,-153)"> <rect height="1" width="1" x="19" y="156"></rect> </g> <g transform="matrix(1,0,0,1,0,-155.001)"> <rect height="1.001" width="1" x="19" y="157"></rect> </g> </g> </g> </g></svg>