<svg
    width="35"
    height="35"
    viewBox="0 0 35 35"
    stroke="currentColor"
    fill="none"
    xmlns="http://www.w3.org/2000/svg"
>
<path
        d="M5.07602 35C4.47374 35.0007 3.87152 34.9863 3.26974 34.9566L2.9883 34.8792C2.26117 34.674 1.59872 34.2182 1.0811 33.5669C0.563471 32.9156 0.212846 32.0966 0.0716374 31.2092L0.0255848 30.9242C0.0127924 30.5959 0 29.6668 0 28.8585V1.47111C0.00135083 1.08091 0.130173 0.707211 0.358342 0.43159C0.586512 0.155968 0.895496 0.000814599 1.21784 0H28.4247C28.7468 0.000818283 29.0555 0.156073 29.2833 0.431782C29.5111 0.707491 29.6393 1.0812 29.64 1.47111V6.20652H33.7105C34.0521 6.20816 34.3793 6.37313 34.6208 6.66551C34.8624 6.95789 34.9987 7.35397 35 7.76745V30.0416C35 31.3558 34.5687 32.6162 33.801 33.5455C33.0333 34.4748 31.9921 34.9969 30.9064 34.9969L5.07602 35ZM5.07602 31.5653H27.0073C26.8765 31.074 26.8101 30.5609 26.8103 30.0447V23.3116C26.8054 23.1992 26.8028 23.0866 26.8026 22.9741V3.43155H2.83735V28.8585C2.83735 29.5336 2.84503 30.1902 2.8527 30.5433L2.85782 30.5681C2.89599 30.8011 2.9886 31.0161 3.12465 31.1873C3.26069 31.3586 3.43447 31.479 3.62537 31.5343L3.65095 31.5405C3.99123 31.5529 4.56689 31.5653 5.07602 31.5653ZM23.6659 8.84523H5.85892V12.2799H23.6659V8.84523ZM13.432 16.2255H5.85892V27.1644H13.432V16.2255ZM23.6711 16.3061H16.3052V19.7407H23.6685L23.6711 16.3061ZM23.6711 23.77H16.3052V27.2015H23.6685L23.6711 23.77ZM29.6477 9.63808V30.0447C29.6477 30.4488 29.7803 30.8364 30.0163 31.1221C30.2524 31.4079 30.5726 31.5684 30.9064 31.5684C31.2403 31.5684 31.5605 31.4079 31.7965 31.1221C32.0326 30.8364 32.1652 30.4488 32.1652 30.0447V9.63498L29.6477 9.63808Z"
        fill="#09244B"
    />
</svg>
