<svg width="39" height="60" viewBox="0 0 39 60" fill="none" xmlns="http://www.w3.org/2000/svg">
<path d="M20.2762 7.08008H18.3452V16.7355H20.2762V7.08008Z" fill="#7F7774"/>
<path d="M11.2645 7.08008H9.3335V16.7355H11.2645V7.08008Z" fill="#7F7774"/>
<path d="M29.288 7.08008H27.3569V16.7355H29.288V7.08008Z" fill="#554F4E"/>
<path d="M21.8857 5.7932V2.57482C21.8857 1.15269 20.7329 0 19.3109 0C17.8889 0 16.7361 1.15269 16.7361 2.57482V5.79332C16.7361 7.21534 17.8888 8.36814 19.3109 8.36814C20.7329 8.36802 21.8857 7.21522 21.8857 5.7932Z" fill="#3891E9"/>
<path d="M12.874 5.7932V2.57482C12.874 1.15269 11.7212 0 10.2992 0C8.87717 0 7.72437 1.15269 7.72437 2.57482V5.79332C7.72437 7.21534 8.87705 8.36814 10.2992 8.36814C11.7213 8.36814 12.874 7.21522 12.874 5.7932Z" fill="#68AEF4"/>
<path d="M30.8973 5.7932V2.57482C30.8973 1.15269 29.7446 0 28.3226 0C26.9006 0 25.7478 1.15269 25.7478 2.57482V5.79332C25.7478 7.21534 26.9005 8.36814 28.3226 8.36814C29.7448 8.36814 30.8973 7.21522 30.8973 5.7932Z" fill="#68AEF4"/>
<path d="M29.6097 50.8521V56.0016H5.14941V25.748H29.6097V30.8976L23.1728 40.8748L29.6097 50.8521Z" fill="#C08577"/>
<path d="M33.4721 25.748H25.7478V56.0015H33.4721V25.748Z" fill="#AB5D4A"/>
<path d="M30.897 54.7139L28.3223 56.6449L30.897 58.5759H34.7591V54.7139H30.897Z" fill="#D5AEA4"/>
<path d="M29.6097 30.8975V50.852H25.7476L23.1729 40.8747L25.7476 30.8975H29.6097Z" fill="#D5AEA4"/>
<path d="M25.7478 30.8975H9.01172V50.8519H25.7478V30.8975Z" fill="#EAD6D2"/>
<path d="M23.1729 16.7363L30.8971 27.0354H34.7593V16.7363H23.1729Z" fill="#D5AEA4"/>
<path d="M30.8974 16.7363H3.8623V27.0354H30.8974V16.7363Z" fill="#EAD6D2"/>
<path d="M38.6214 15.4482V19.3104H34.7593L33.4719 17.3794L34.7593 15.4482H38.6214Z" fill="#AB5D4A"/>
<path d="M30.8974 54.7139H3.8623V58.576H30.8974V54.7139Z" fill="#EAD6D2"/>
<path d="M34.7593 15.4482H0V19.3104H34.7593V15.4482Z" fill="#C08577"/>
<path d="M35.0812 59.5415H3.54028C3.00696 59.5415 2.57471 59.1092 2.57471 58.5759C2.57471 58.0427 3.00685 57.6104 3.54028 57.6104H35.0812C35.6145 57.6104 36.0468 58.0426 36.0468 58.5759C36.0468 59.1092 35.6145 59.5415 35.0812 59.5415Z" fill="#AB5D4A"/>
<path d="M29.9318 24.1382H8.68994C8.15662 24.1382 7.72437 23.7059 7.72437 23.1726C7.72437 22.6394 8.15651 22.207 8.68994 22.207H29.9318C30.4651 22.207 30.8974 22.6393 30.8974 23.1726C30.8973 23.7058 30.4651 24.1382 29.9318 24.1382Z" fill="white"/>
</svg>
