<svg
    width="54"
    height="54"
    viewBox="0 0 54 54"
    fill="none"
    xmlns="http://www.w3.org/2000/svg"
>
<path
        d="M27.0001 34.4152C31.3934 34.4152 34.955 31.0573 34.955 26.9152C34.955 22.773 31.3934 19.4152 27.0001 19.4152C22.6067 19.4152 19.0452 22.773 19.0452 26.9152C19.0452 31.0573 22.6067 34.4152 27.0001 34.4152Z"
        stroke="currentColor"
        stroke-width="3"
    />
<path
        d="M4.88879 23.5132C6.14182 24.2554 6.94805 25.5199 6.94805 26.9149C6.94802 28.3102 6.14179 29.5747 4.88879 30.3169C4.03613 30.8219 3.48677 31.2257 3.09592 31.7059C2.23968 32.7582 1.8618 34.0877 2.0454 35.4024C2.18307 36.3884 2.80082 37.3972 4.03632 39.4149C5.27185 41.4324 5.8896 42.4412 6.72648 43.0467C7.84234 43.8539 9.25263 44.2102 10.6471 44.0372C11.2836 43.9582 11.929 43.7114 12.8191 43.2679C14.1277 42.6159 15.6925 42.5899 16.9742 43.2877C18.2558 43.9854 19.0142 45.2759 19.0694 46.6702C19.1071 47.6189 19.2032 48.2694 19.4489 48.8287C19.9872 50.0537 21.0196 51.0272 22.319 51.5347C23.2937 51.9152 24.5291 51.9152 27.0002 51.9152C29.4712 51.9152 30.7066 51.9152 31.6813 51.5347C32.9806 51.0272 34.0132 50.0537 34.5515 48.8287C34.797 48.2694 34.8933 47.6189 34.9309 46.6704C34.9861 45.2759 35.7444 43.9854 37.0262 43.2877C38.3078 42.5902 39.8725 42.6162 41.1808 43.2682C42.0712 43.7117 42.7166 43.9584 43.353 44.0374C44.7475 44.2107 46.1579 43.8542 47.2737 43.0469C48.1106 42.4417 48.7284 41.4327 49.9641 39.4152C50.514 38.5169 50.9417 37.8187 51.2589 37.2332M49.1113 30.3172C47.8584 29.5749 47.0523 28.3104 47.052 26.9154C47.052 25.5202 47.8584 24.2554 49.1113 23.5132C49.9641 23.0082 50.5132 22.6044 50.9041 22.1242C51.7603 21.0721 52.1381 19.7425 51.9546 18.4277C51.817 17.4417 51.1992 16.4329 49.9635 14.4153C48.7281 12.3977 48.1103 11.3889 47.2735 10.7835C46.1577 9.97619 44.7473 9.61991 43.3528 9.79299C42.7164 9.87201 42.071 10.1187 41.1808 10.5622C39.8722 11.2143 38.3075 11.2403 37.026 10.5426C35.7444 9.84491 34.9861 8.55441 34.9309 7.16024C34.8933 6.21146 34.797 5.56104 34.5515 5.00174C34.0132 3.77661 32.9806 2.80324 31.6813 2.29576C30.7066 1.91516 29.4712 1.91516 27.0002 1.91516C24.5291 1.91516 23.2937 1.91516 22.319 2.29576C21.0196 2.80324 19.9872 3.77661 19.4489 5.00174C19.2032 5.56099 19.1071 6.21136 19.0694 7.16001C19.0141 8.55431 18.2557 9.84494 16.9741 10.5426C15.6925 11.2402 14.1278 11.2141 12.8194 10.5622C11.9292 10.1186 11.2837 9.87189 10.6472 9.79286C9.25266 9.61979 7.84236 9.97606 6.7265 10.7833C5.88962 11.3888 5.27187 12.3976 4.03635 14.4152C3.48632 15.3134 3.05872 16.0116 2.7414 16.597"
        stroke="currentColor"
        stroke-width="3"
        stroke-linecap="round"
    />
</svg>
