<svg width="56" height="63" viewBox="0 0 56 63" fill="none" xmlns="http://www.w3.org/2000/svg">
<path d="M55.1415 14.63V57.3697C55.1415 59.3928 53.4953 61.0393 51.4768 61.0393H50.05C50.05 61.7121 49.5062 62.2609 48.8284 62.2609H43.866C43.1931 62.2609 42.6444 61.7121 42.6444 61.0393H12.5019C12.5019 61.7121 11.9532 62.2609 11.2804 62.2609H6.31304C5.64018 62.2609 5.09146 61.7121 5.09146 61.0393H3.66467C1.64157 61.0393 0 59.3929 0 57.3697V14.63C0 12.6066 1.6415 10.9653 3.66467 10.9653H14.3341C14.7206 9.90107 15.2979 8.93243 16.0614 8.12618L7.27671 4.13713C7.27671 4.1418 7.27671 4.1418 7.27181 4.1418C6.94735 4.33263 6.56086 4.44254 6.15533 4.44254C4.92916 4.44254 3.93184 3.44989 3.93184 2.21882C3.93184 0.992425 4.92908 7.47031e-08 6.15533 0C7.25766 0 8.15937 0.806483 8.33116 1.85627L8.30256 1.92297L18.3183 6.4703C19.3681 5.95508 20.5275 5.63529 21.7731 5.63529C23.5434 5.63529 25.1563 6.24145 26.478 7.22424L49.8401 1.62245C50.112 0.696494 50.9136 0 51.9253 0C53.1514 0 54.1487 0.992348 54.1487 2.21882C54.1487 3.44989 53.1515 4.44254 51.9253 4.44254C51.4195 4.44254 50.9757 4.24199 50.5987 3.95096L28.4009 9.27617C28.7398 9.80095 29.0212 10.3687 29.2406 10.9653H51.4767C53.4953 10.9653 55.1415 12.6066 55.1415 14.63Z" fill="#27323A"/>
<path d="M17.7747 12.1152H25.7814C25.1756 10.4786 23.6198 9.2998 21.7733 9.2998C19.9315 9.2998 18.3806 10.4786 17.7747 12.1152Z" fill="white"/>
<path d="M51.4769 14.6299H3.66479V57.3696L51.472 57.3745L51.4769 14.6299Z" fill="#F4CE73"/>
<path d="M15.9613 50.398H19.626V54.0626H15.9613V50.398ZM22.5176 50.398H26.1823V54.0626H22.5176V50.398ZM29.1645 50.398H32.8292V54.0626H29.1645V50.398ZM35.5107 50.398H39.1754V54.0626H35.5107V50.398ZM7.29126 43.2977V21.6821C7.29126 18.9812 9.47658 16.7959 12.1774 16.7959H42.8974C45.5933 16.7959 47.7836 18.9812 47.7836 21.6821V43.2976C47.7836 45.9938 45.5933 48.1837 42.8974 48.1837H12.1774C9.47658 48.1838 7.29126 45.9938 7.29126 43.2977Z" fill="#27323A"/>
<path d="M9.73438 43.2979C9.73438 44.6436 10.8269 45.741 12.1775 45.741H42.8974C44.2431 45.741 45.3405 44.6436 45.3405 43.2979V21.6823C45.3405 20.3367 44.2431 19.2393 42.8974 19.2393H12.1775C10.8269 19.2393 9.73438 20.3367 9.73438 21.6823V43.2979Z" fill="white"/>
<path d="M12.1775 21.6826H42.8974V43.2981H12.1775V21.6826Z" fill="#79CCBF"/>
</svg>
